<svg id="图层_1" data-name="图层 1" xmlns="http://www.w3.org/2000/svg" xmlns:xlink="http://www.w3.org/1999/xlink" viewBox="0 0 1175.45 614.75"><defs><style>.cls-1,.cls-23,.cls-7{fill:none;}.cls-2{clip-path:url(#clip-path);}.cls-3{fill:url(#未命名的渐变_62);}.cls-4{fill:url(#未命名的渐变_61);}.cls-5{fill:url(#未命名的渐变_57);}.cls-6{fill:#efd9a1;}.cls-7{stroke:#f2bbb9;}.cls-23,.cls-7{stroke-linecap:round;stroke-width:2px;}.cls-10,.cls-16,.cls-23,.cls-7{stroke-miterlimit:10;}.cls-8{fill:#dfaccd;}.cls-9{fill:#939cce;}.cls-10{fill:#818ec6;stroke:#e3d8ea;}.cls-11{fill:#ecd49c;}.cls-12{fill:#e6c29c;}.cls-13{fill:#7acbdd;}.cls-14{fill:#45a4cd;}.cls-15{fill:#939bcd;}.cls-16{fill:#9cabd7;stroke:#e6eaf6;}.cls-17,.cls-24{fill:#fff;}.cls-18{fill:#e3e7f5;}.cls-19,.cls-20{fill:#8496cc;}.cls-19,.cls-22,.cls-24{opacity:0.49;}.cls-20{opacity:0.51;}.cls-21,.cls-27{fill:#607bbc;}.cls-21{opacity:0.46;}.cls-22{fill:#b4c3e4;}.cls-23{stroke:#6b7fbe;}.cls-25{fill:#5e70b4;}.cls-26{fill:#f8f7fb;}.cls-27{opacity:0.28;}.cls-28{fill:#56bcec;}.cls-29{fill:#2d2717;}.cls-30{fill:#f7c2ae;}.cls-31{fill:#412f5d;}.cls-32{fill:#514569;}.cls-33{fill:#d3d6ec;}.cls-34{clip-path:url(#clip-path-2);}.cls-35{fill:#beceea;}.cls-36{fill:#f2a678;}.cls-37{fill:#9c9cc4;}</style><clipPath id="clip-path"><path class="cls-1" d="M140.54,100.4C189.76,58,258.65,68.15,271.38,70c76.24,11.22,81.25,58,143,60.77,44.13,2,55.48-21.26,118.69-43.6,78-27.56,146.1-22.31,195.58-18.49,80.71,6.22,162,12.49,230.64,71.34,67.8,58.11,123.17,167.39,89,274.79C1027.39,480.52,973.87,542.75,904,568.07c-90.13,32.65-130.79-23.82-308.87-18.49-18.29.54-65.69,5.65-160.51,15.85C298.09,580.12,265.13,586.69,212,573.36c-23.59-5.93-119.61-30-136.23-92.48-6.43-24.17.75-47.67,14.84-93.8,18-59,29.41-53.52,35.37-86.28,13.09-71.9-39.92-108.28-13.79-164.73C120.72,117.71,133.19,106.74,140.54,100.4Z"/></clipPath><linearGradient id="未命名的渐变_62" x1="227.84" y1="-87.58" x2="1034.83" y2="329.87" gradientUnits="userSpaceOnUse"><stop offset="0.19" stop-color="#414293"/><stop offset="0.93" stop-color="#6365ad"/></linearGradient><linearGradient id="未命名的渐变_61" x1="164.72" y1="-4.4" x2="932.13" y2="646.43" gradientUnits="userSpaceOnUse"><stop offset="0.28" stop-color="#414293"/><stop offset="0.88" stop-color="#6365ad"/></linearGradient><linearGradient id="未命名的渐变_57" x1="32.12" y1="205.49" x2="1161.58" y2="736.45" gradientUnits="userSpaceOnUse"><stop offset="0.24" stop-color="#5a5ca7"/><stop offset="0.89" stop-color="#393885"/></linearGradient><clipPath id="clip-path-2"><rect class="cls-1" x="202.46" y="262.64" width="127.99" height="230.14"/></clipPath></defs><title>feature3</title><g class="cls-2"><path class="cls-3" d="M54.27,121.87c1.64,32.53,34.6,56.07,49.44,66.39,91.05,63.27,247.47,68.44,546.75,84.22,261.89,13.81,360.57,21.37,424.59-25.76,38.47-28.32,58.81-72.26,61.07-77.29,6.34-14.05,38.09-84.43,0-124.84C1095,.9,989.12,10.2,838,11.89,419.67,16.58,259.6-43.82,129.89,31.71,110.65,42.91,52,77.05,54.27,121.87Z"/><path class="cls-4" d="M1051.79,328c46.12-31.88,64.14-59.4,64-86.2,0-2.77-1.21-47.6-46.53-70-52.78-26.1-120.24.53-244.29,17.18-57.51,7.71-160.69,21.56-265.65,10.24-178.82-19.28-214.18-95.56-348-86.21C114.43,119.73,50.17,165.51,31,180.65c-107.3,84.53-88.21,220.46,3.45,298.91,13.79,11.8,53.77,43.29,136.2,67.38C559.39,660.52,1017.31,351.79,1051.79,328Z"/><path class="cls-5" d="M-56.24,560.81C-69.38,507.49,80.82,441.46,170.6,416.15c26.76-7.55,208.28-58.73,359.16-15.86,31.61,9,105,29.13,196.84,25.24a176.92,176.92,0,0,0,35.82-5.42c70.46-17.59,66.18-51.47,158.5-89.17,24.79-10.13,134.7-55,199.21-31.71,81.68,29.51,95,175.08,17.45,260.59C929.31,789.35-25.18,686.77-56.24,560.81Z"/></g><path class="cls-6" d="M234.06,313.23c-6.94-6.4-19.69-12.56-27.64-8.35-9.76,5.18-5,22.17-18.77,32.33-1,.76-10,7.27-15.65,4.18-6-3.29-1.37-13.72-8.86-24.51-.85-1.23-8.31-12.2-17.21-10.95-7.37,1-12.49,10-13.56,17.2-1.4,9.47,4.23,15.57,2.09,17.39-3.51,3-16.37-15.25-34.94-15.3-7.54,0-17.58,2.94-21.9,10.43-6.1,10.57.25,26.41,9.38,34.94,18.45,17.23,51.06,7.25,53.19,16.16.73,3-3,4.39-8.34,15.13-4.31,8.66-7.45,15-5.22,18.77,4,6.75,25.62,6.3,40.16-4.17,11-7.92,14-18.78,20.33-17.73,4.15.69,4.38,5.67,10.43,11.47,6.7,6.41,16.79,10.22,22.43,9.39C240.94,416.5,263,339.87,234.06,313.23Z"/><path class="cls-7" d="M107.33,355.81a174.92,174.92,0,0,1,125.15,28.86"/><path class="cls-7" d="M165.19,406.57a82.68,82.68,0,0,1,63.62-26.42"/><path class="cls-6" d="M357,232.49a229.14,229.14,0,0,1,33.05-71.39,27.74,27.74,0,0,1,6.26,15.22c.34,5.11-1.05,8.94-2.51,12.8-6.94,18.36-10.41,27.54-13.64,32.37a89.19,89.19,0,0,1-19,20.45Z"/><path class="cls-6" d="M340.36,206a230.33,230.33,0,0,1,12.16-35,226,226,0,0,1,17.36-32.08,26.33,26.33,0,0,1,5.3,14.17c.25,4.78-1,8.38-2.31,12-6.24,17.24-9.35,25.86-12.21,30.41a84.21,84.21,0,0,1-16.76,19.32Z"/><path class="cls-6" d="M325.81,171.7a198.73,198.73,0,0,1,28.74-62.08A24.16,24.16,0,0,1,360,122.85c.3,4.45-.91,7.78-2.18,11.14-6,16-9.05,23.95-11.86,28.14a77.3,77.3,0,0,1-16.52,17.78Q327.62,175.82,325.81,171.7Z"/><path class="cls-6" d="M311.75,139.71a199.33,199.33,0,0,1,28.74-62.08,24.13,24.13,0,0,1,5.44,13.23c.3,4.45-.91,7.78-2.18,11.13-6,16-9.05,24-11.86,28.15a77.3,77.3,0,0,1-16.52,17.78Z"/><path class="cls-6" d="M301.55,110.68a160.66,160.66,0,0,1,15.58-52.81,19.45,19.45,0,0,1,5.89,9.9,19.77,19.77,0,0,1-.43,9.12c-2.92,13.42-4.39,20.13-6.13,23.8a62.12,62.12,0,0,1-11.06,16.1Z"/><path class="cls-6" d="M298,74.13a160.11,160.11,0,0,0-22-50.46,19.47,19.47,0,0,0-4.62,10.55,20,20,0,0,0,1.56,9c4.58,13,6.86,19.43,9,22.85a62.29,62.29,0,0,0,13,14.6Z"/><path class="cls-6" d="M300.28,112.58a160.57,160.57,0,0,0-52.36-17A19.39,19.39,0,0,0,252.75,106a20,20,0,0,0,7.76,4.81c12.72,5.18,19.08,7.77,23.09,8.41a62.1,62.1,0,0,0,19.54,0Q301.7,115.9,300.28,112.58Z"/><path class="cls-6" d="M310,143a173.46,173.46,0,0,0-56.79-18.48,21.13,21.13,0,0,0,5.23,11.34c2.67,2.83,5.52,4,8.43,5.21,13.79,5.62,20.69,8.43,25,9.13a67.37,67.37,0,0,0,21.19,0C312,147.81,311,145.41,310,143Z"/><path class="cls-6" d="M324.4,173.83a268.61,268.61,0,0,0-36.16-10.16A255.18,255.18,0,0,0,252,158.85a28.13,28.13,0,0,0,9.52,11.46c4,2.76,7.69,3.8,11.46,4.81,17.93,4.82,26.89,7.24,32.22,7.63a89,89,0,0,0,25-1.63Z"/><path class="cls-6" d="M338.65,207a302.21,302.21,0,0,0-39.36-6.52,282.71,282.71,0,0,0-38.67-1.17,30.71,30.71,0,0,0,11.62,10.51c4.57,2.36,8.61,3,12.71,3.66,19.47,3,29.21,4.53,34.85,4.39a96.86,96.86,0,0,0,25.95-4.16Z"/><path class="cls-6" d="M361.81,249.9c-10.38-17.14-20.08-35-28.84-53.19a518.24,518.24,0,0,1-26.5-63.82,485.14,485.14,0,0,1-16.76-64.64l4.66-.87a478.63,478.63,0,0,0,16.6,64,509.6,509.6,0,0,0,26.27,63.27c8.69,18,18.32,35.79,28.62,52.8Z"/><path class="cls-8" d="M321.29,261.22a182.81,182.81,0,0,1,5.5-62.53,22.2,22.2,0,0,1,8.82,9.73c1.64,3.74,1.63,7,1.57,10.29-.24,15.66-.36,23.49-1.48,28A70.82,70.82,0,0,1,327,267.18Z"/><path class="cls-8" d="M301.63,245.85a183.43,183.43,0,0,1-.35-29.58,179.33,179.33,0,0,1,4.35-28.78,21,21,0,0,1,7.81,9.2,23,23,0,0,1,1.51,9.64c0,14.63,0,21.94-.94,26.13a67,67,0,0,1-7.35,19Z"/><path class="cls-8" d="M281.42,224a158.63,158.63,0,0,1,4.77-54.38,19.29,19.29,0,0,1,7.67,8.46,19.7,19.7,0,0,1,1.37,8.95c-.21,13.62-.31,20.43-1.28,24.34a62.37,62.37,0,0,1-7.59,17.82Z"/><path class="cls-8" d="M262.21,203.82A158.57,158.57,0,0,1,267,149.44a19.18,19.18,0,0,1,7.67,8.46,19.68,19.68,0,0,1,1.37,8.95c-.21,13.61-.31,20.42-1.28,24.33A62.14,62.14,0,0,1,267.15,209C265.5,207.27,263.85,205.55,262.21,203.82Z"/><path class="cls-8" d="M246.7,184.78a127.76,127.76,0,0,1-2.59-43.85,15.51,15.51,0,0,1,7.1,5.83,15.92,15.92,0,0,1,2.14,7c1.43,10.87,2.15,16.3,1.84,19.53a49.76,49.76,0,0,1-3.95,15.08Z"/><path class="cls-8" d="M234.14,158.31A127.73,127.73,0,0,0,204,126.39a15.49,15.49,0,0,0-.61,9.17,15.91,15.91,0,0,0,3.61,6.33c6.93,8.49,10.4,12.73,13,14.71a49.56,49.56,0,0,0,13.69,7.45C233.79,162.13,234,160.22,234.14,158.31Z"/><path class="cls-8" d="M246.25,186.56a128,128,0,0,0-43.91,1.37,15.52,15.52,0,0,0,6.45,6.55,16,16,0,0,0,7.13,1.5c11,.45,16.43.68,19.61.07a49.39,49.39,0,0,0,14.66-5.29Z"/><path class="cls-8" d="M261.75,206.79a138.83,138.83,0,0,0-47.63,1.49,16.82,16.82,0,0,0,7,7.1,17.29,17.29,0,0,0,7.73,1.63c11.88.49,17.82.73,21.27.08a54.09,54.09,0,0,0,15.9-5.74Z"/><path class="cls-8" d="M280.94,226a213.49,213.49,0,0,0-29.9,2.16,204.06,204.06,0,0,0-28.51,6.18,22.36,22.36,0,0,0,10.25,6,26.88,26.88,0,0,0,9.9.51c14.77-1.23,22.15-1.84,26.26-3a71.12,71.12,0,0,0,18.3-8Z"/><path class="cls-8" d="M300.61,247.09a240.4,240.4,0,0,0-31.3,5.75A225.88,225.88,0,0,0,240,262.42a24.49,24.49,0,0,0,11.57,4.75,30.73,30.73,0,0,0,10.52-.69c15.44-3,23.16-4.51,27.36-6.14a77,77,0,0,0,18.35-10.14Z"/><path class="cls-8" d="M329.6,273c-12.43-10.06-24.55-20.87-36-32.14a411.88,411.88,0,0,1-37.16-40.74,385.7,385.7,0,0,1-30.07-44l3.26-1.91a383.37,383.37,0,0,0,29.77,43.56,408,408,0,0,0,36.85,40.38c11.4,11.18,23.43,21.91,35.77,31.9Z"/><path class="cls-9" d="M187.67,315.51a120.26,120.26,0,0,1,3.62-41.14,14.63,14.63,0,0,1,5.8,6.4,15,15,0,0,1,1,6.77c-.16,10.3-.24,15.45-1,18.41a46.77,46.77,0,0,1-5.74,13.48C190.16,318.12,188.92,316.81,187.67,315.51Z"/><path class="cls-9" d="M174.74,305.4a119.61,119.61,0,0,1-.23-19.47A117.07,117.07,0,0,1,177.37,267a13.94,13.94,0,0,1,5.14,6.05,15.18,15.18,0,0,1,1,6.34c0,9.63,0,14.44-.62,17.19a44.25,44.25,0,0,1-4.83,12.53Z"/><path class="cls-9" d="M161.44,291a104.5,104.5,0,0,1,3.14-35.77,12.6,12.6,0,0,1,5,5.56,13,13,0,0,1,.9,5.89c-.14,9-.21,13.44-.85,16a40.59,40.59,0,0,1-5,11.72Z"/><path class="cls-9" d="M148.8,277.74A104.84,104.84,0,0,1,152,242a12.63,12.63,0,0,1,5,5.57,13,13,0,0,1,.9,5.88c-.13,9-.2,13.44-.84,16a40.39,40.39,0,0,1-5,11.72Z"/><path class="cls-9" d="M138.6,265.22a84.27,84.27,0,0,1-1.7-28.85,10.23,10.23,0,0,1,4.67,3.84,10.48,10.48,0,0,1,1.41,4.58c.94,7.15,1.41,10.72,1.21,12.84a32.6,32.6,0,0,1-2.6,9.92Z"/><path class="cls-9" d="M130.34,247.8a83.89,83.89,0,0,0-19.86-21,10.21,10.21,0,0,0-.4,6,10.45,10.45,0,0,0,2.37,4.16c4.57,5.59,6.85,8.38,8.53,9.68a32.93,32.93,0,0,0,9,4.9C130.11,250.32,130.22,249.06,130.34,247.8Z"/><path class="cls-9" d="M138.31,266.39a84,84,0,0,0-14.56-.8,85.15,85.15,0,0,0-14.33,1.7,10.31,10.31,0,0,0,4.25,4.31,10.46,10.46,0,0,0,4.69,1c7.2.29,10.8.44,12.9.05a32.87,32.87,0,0,0,9.64-3.49Z"/><path class="cls-9" d="M148.5,279.7a90.79,90.79,0,0,0-31.33,1,11.1,11.1,0,0,0,4.6,4.67,11.33,11.33,0,0,0,5.09,1.07c7.81.32,11.72.48,14,.05a35.54,35.54,0,0,0,10.47-3.77Z"/><path class="cls-9" d="M161.12,292.34a140.7,140.7,0,0,0-19.66,1.42,133.88,133.88,0,0,0-18.75,4.07,14.73,14.73,0,0,0,6.73,4,17.91,17.91,0,0,0,6.52.33c9.71-.81,14.57-1.21,17.27-2a46.47,46.47,0,0,0,12-5.25Z"/><path class="cls-9" d="M174.07,306.21a159,159,0,0,0-20.6,3.78,149.69,149.69,0,0,0-19.3,6.3,16,16,0,0,0,7.61,3.13,20,20,0,0,0,6.92-.46c10.16-2,15.24-3,18-4a50.56,50.56,0,0,0,12.07-6.66Z"/><path class="cls-9" d="M193.14,323.25c-8.18-6.62-16.16-13.73-23.71-21.14A270,270,0,0,1,145,275.31a255.57,255.57,0,0,1-19.78-28.94l2.15-1.26a251.88,251.88,0,0,0,19.58,28.66,269.51,269.51,0,0,0,24.24,26.57c7.5,7.35,15.42,14.41,23.53,21Z"/><path class="cls-10" d="M872.32,498.48A304.27,304.27,0,0,0,977.13,437a84.49,84.49,0,0,0-49.8-4.95c-34.42,7.27-51.65,34.29-54.75,39.37Q872.45,484.93,872.32,498.48Z"/><path class="cls-11" d="M846.4,450.37a458,458,0,0,0,119.41-89.69,456.23,456.23,0,0,0,67.27-90.74l-31.29-6.78h33.9a307.65,307.65,0,0,0,25-81.87,196.05,196.05,0,0,0-86,17.73q-1,20.34-2.09,40.67-2.34-18.51-4.69-37A180.53,180.53,0,0,0,910,239.17l8.34,26.6-15.12-24a233.76,233.76,0,0,0-39.63,33.9Z"/><path class="cls-12" d="M853.2,385.71l-.39-.43q-3.21,32.54-6.41,65.09a458,458,0,0,0,119.41-89.69,456.23,456.23,0,0,0,67.27-90.74l-31.29-6.78h33.9a307.65,307.65,0,0,0,25-81.87h-.55Z"/><path class="cls-11" d="M255.26,348.07a334,334,0,0,1-87.12-65.43,333.12,333.12,0,0,1-49.08-66.2l22.83-4.95H117.16A223.75,223.75,0,0,1,98.9,151.76a144.88,144.88,0,0,1,43.37,5.71,142.85,142.85,0,0,1,19.4,7.23q.77,14.84,1.52,29.67,1.71-13.5,3.43-27A132,132,0,0,1,208.85,194l-6.09,19.41,11-17.5a169.59,169.59,0,0,1,14.08,10.65,172.69,172.69,0,0,1,14.84,14.07Z"/><path class="cls-12" d="M250.3,300.9l.28-.31,4.68,47.48a334,334,0,0,1-87.12-65.43,333.12,333.12,0,0,1-49.08-66.2l22.83-4.95H117.16A223.75,223.75,0,0,1,98.9,151.76h.4Z"/><path class="cls-13" d="M861.64,331A236.91,236.91,0,0,0,943.9,224.16l-16.59-1.11,17.42-2.57a160.46,160.46,0,0,0,6.66-44,102.85,102.85,0,0,0-30,8.53,100.9,100.9,0,0,0-12.92,7.1l2,21.07-5.21-18.68a94.4,94.4,0,0,0-16.58,12,93,93,0,0,0-10.4,11.12l6.3,13L875,219.53a121.83,121.83,0,0,0-8.81,9,123.57,123.57,0,0,0-9,11.46Z"/><path class="cls-14" d="M860.23,297.29l-.23-.19q.82,17,1.64,33.94A236.91,236.91,0,0,0,943.9,224.16l-16.59-1.11,17.42-2.57a160.46,160.46,0,0,0,6.66-44l-.29,0Z"/><path class="cls-15" d="M1100.77,499.74c-7.42-9.77,1.55-21.11-3.13-41.19-1.71-7.33-4.56-19.55-13.56-23.47-9.2-4-16.87,4.13-29.2-1-5.3-2.22-10.61-6.54-9.91-8.87.91-3,11.71-2.33,17.21-1.56a56.81,56.81,0,0,1,20.34,7,62.3,62.3,0,0,0-9.13-18.25c-4.54-6.22-12.93-17.73-23.86-17.6-5.65.07-10.43,3.23-15.38,6.52-7.87,5.22-9.51,9.69-14.86,9.91-4.23.17-9.11-2.38-9.78-5.61-1.08-5.23,9-11.36,14.6-13.82,4.05-1.79,13.58-5.13,27.51-1.82-1.91-5.09-7.27-17.11-20.08-25.3-4.92-3.14-18.1-11.57-29.07-7-5,2.06-6.29,5.46-15.9,9.78-4.89,2.2-9.34,4.13-11.61,2.22s-1.67-7.5.65-11.08c3.35-5.16,9.95-6.09,16.69-7a55.13,55.13,0,0,1,18.9.65A62,62,0,0,0,995.69,342c-5.51-2.52-19.79-8.81-37-4.43a52,52,0,0,0-24.29,14.24,158.33,158.33,0,0,1,15.19,7.66c9.19,5.27,27.53,17,58.75,54.06,13.56,16.1,12.25,16.46,27.81,34.94,13,15.45,24.37,27.58,32.16,35.63a515.22,515.22,0,0,1-54.76-58.93c-12.77-16.15-22-30-41.54-45.88-20-16.29-33.85-21.08-42.24-23.21a93.9,93.9,0,0,0-35-2,2.62,2.62,0,0,0-.17.33c-1.55,3.3.6,7.3,1.3,8.6,4.47,8.31,12.62,6.63,18.38,13.95,5.14,6.52,5.62,16.68,2.61,18.51s-12-4.12-17.08-11.6c-6.72-9.82-4.56-18.45-13.17-24.64a31.21,31.21,0,0,0-5.86-3,86.49,86.49,0,0,0-21.77-6.39q-.86,41.6-1.7,83.18A239.55,239.55,0,0,1,925,426.22c30.49,1.35,59.39,2.63,85,21.38,13.92,10.19,14.22,16.28,42.76,39.63,12.09,9.89,22.58,17.42,37.55,20.34a68.46,68.46,0,0,0,25.55,0C1111.38,506.86,1104.81,505.07,1100.77,499.74Z"/><rect class="cls-16" x="554.28" y="95.94" width="342.48" height="412.96" rx="10.58"/><rect class="cls-17" x="560.61" y="113.06" width="329.83" height="378.72"/><rect class="cls-18" x="581.44" y="128.57" width="138.87" height="123.59" rx="6.19"/><path class="cls-19" d="M715.61,181.28a7.87,7.87,0,0,1-2.49.7,9.69,9.69,0,0,1-6.57-2.43c-7.27-6-13-26.62-19.79-25.09-1.58.36-4,4.62-8.9,13.15-7.4,12.93-6.91,16-10,19-4.56,4.49-7.52-.09-20.29-7.28-9.19-5.18-13.79-7.77-16.13-7.29-12.1,2.49-14.5,26.43-24.37,24.69-4.67-.83-8.27-6.93-14.21-17a102.81,102.81,0,0,1-6.74-13.68V232H715.61Z"/><path class="cls-20" d="M715.61,159a6,6,0,0,0-7.73,1.32c-3.25,3.42-3.79,8.74-7.49,14.16s-7.38,6.2-8.73,6.48c-5.16,1-8.46-3.62-13.72-8.7-9.38-9.07-14.06-13.6-18.54-12.34-8.15,2.28-8.54,18.48-23.53,36.61-8.68,10.5-11.61,8.78-12.73,7.89-5.82-4.62-5.41-21-11.8-26.9-5.75-5.35-12,2.34-14,4.85-4.91,6.07-7.79,15.59-9.32,20.64-.7,2.32-1.23,4.37-1.91,7.26V232H715.61Z"/><path class="cls-21" d="M715.61,209a28.56,28.56,0,0,1-6-3.6c-9.22-7-9.13-13.4-13.47-13.15-6.25.37-7.06,13.56-15.86,17.4a11,11,0,0,1-9.07-.2c-9.29-3.76-10.27-15.61-16.47-16.79-6.84-1.3-7.48,12.79-18,18-2,1-9.29,4.41-17.08-2.22-7-6-7.42-14.17-13.48-16.39s-11.24,4-13.74,7.08a44.92,44.92,0,0,0-6.34,10V232H715.61Z"/><rect class="cls-18" x="730.74" y="128.57" width="138.87" height="123.59" rx="6.19"/><rect class="cls-21" x="736.09" y="207.26" width="13.36" height="24.68"/><rect class="cls-22" x="759.26" y="195.27" width="13.36" height="36.68"/><rect class="cls-21" x="782.43" y="183.45" width="13.36" height="48.5"/><rect class="cls-22" x="805.6" y="174.24" width="13.36" height="57.71"/><rect class="cls-21" x="828.77" y="162.94" width="13.36" height="69.01"/><rect class="cls-22" x="851.93" y="149.38" width="13.36" height="82.57"/><rect class="cls-18" x="730.74" y="263.46" width="138.87" height="123.59" rx="6.19"/><path class="cls-23" d="M737.87,348.47a142.54,142.54,0,0,1,8.43-12.78c4.76-6.44,7.19-9.66,9.82-9.91,5.06-.47,9.63,6.7,15,15.39,9.24,14.85,10,22.54,13.47,22.59,3.34.05,5.55-6.89,13.73-27.11,9.16-22.65,12.23-25.6,15.12-25.73,3.13-.14,6.66,4,13.73,12.34,6.7,7.88,8,11.13,10.09,10.78,3.15-.54,2.81-8.45,7.3-23,2.31-7.47,6.41-20.71,12-20.85,1.74-.05,3.2,1.19,4.17,2.25"/><circle class="cls-24" cx="813.1" cy="309.66" r="12.12"/><circle class="cls-17" cx="813.1" cy="309.66" r="6.52"/><rect class="cls-18" x="581.44" y="402.08" width="288.16" height="20.34" rx="3.21"/><rect class="cls-18" x="581.44" y="427.89" width="288.16" height="20.34" rx="3.21"/><rect class="cls-18" x="581.44" y="453.71" width="288.16" height="20.34" rx="3.21"/><rect class="cls-16" x="279.3" y="204.76" width="488.62" height="340" rx="11.06"/><rect class="cls-17" x="292.34" y="225.62" width="462.54" height="293.07"/><path class="cls-25" d="M798.42,552.32H248.79a37.69,37.69,0,0,1-11.86-4,38.93,38.93,0,0,1-14.21-13.22H824.49A35.66,35.66,0,0,1,810,548.85,34.31,34.31,0,0,1,798.42,552.32Z"/><rect class="cls-26" x="222.72" y="535.1" width="601.77" height="3.03"/><path class="cls-26" d="M568.55,543.11H478.67a12,12,0,0,1-2.6-1.31,13.32,13.32,0,0,1-4.52-5.19H575.67a11.4,11.4,0,0,1-4.65,5.47A9.88,9.88,0,0,1,568.55,543.11Z"/><rect class="cls-18" x="309.8" y="256.21" width="138.87" height="123.59" rx="6.19"/><path class="cls-19" d="M444,308.92a7.87,7.87,0,0,1-2.49.7,9.69,9.69,0,0,1-6.57-2.43c-7.26-6-13-26.62-19.79-25.09-1.57.36-4,4.62-8.9,13.15-7.4,12.93-6.91,16-10,19-4.56,4.49-7.52-.09-20.29-7.28-9.19-5.18-13.78-7.77-16.13-7.29-12.1,2.49-14.5,26.43-24.36,24.68-4.67-.82-8.28-6.92-14.22-17a102.81,102.81,0,0,1-6.74-13.68v65.88H444Z"/><path class="cls-20" d="M444,286.65a6,6,0,0,0-7.73,1.32c-3.25,3.42-3.79,8.74-7.48,14.16s-7.38,6.2-8.74,6.48c-5.16,1-8.46-3.62-13.72-8.7-9.37-9.07-14.06-13.6-18.54-12.34-8.14,2.28-8.53,18.48-23.53,36.61-8.68,10.5-11.61,8.78-12.72,7.89-5.82-4.63-5.42-20.95-11.81-26.9-5.74-5.35-11.94,2.34-14,4.85-4.9,6.07-7.79,15.59-9.32,20.64-.7,2.31-1.22,4.37-1.91,7.26v21.67H444Z"/><path class="cls-21" d="M444,336.68a28.82,28.82,0,0,1-6-3.6c-9.22-7-9.13-13.4-13.47-13.15-6.24.37-7.06,13.56-15.86,17.4a11,11,0,0,1-9.07-.2c-9.28-3.76-10.27-15.61-16.47-16.79-6.84-1.3-7.48,12.79-18,18-2,1-9.3,4.41-17.09-2.22-7-6-7.42-14.17-13.48-16.39s-11.24,4-13.74,7.08a45.29,45.29,0,0,0-6.34,10v22.76H444Z"/><rect class="cls-18" x="309.8" y="396.14" width="431.77" height="20.34" rx="3.21"/><rect class="cls-18" x="309.8" y="425.17" width="431.77" height="20.34" rx="3.21"/><rect class="cls-18" x="309.8" y="454.2" width="359.14" height="20.34" rx="3.21"/><rect class="cls-18" x="309.8" y="483.23" width="300.03" height="20.34" rx="3.21"/><rect class="cls-18" x="456.25" y="256.21" width="138.87" height="123.59" rx="6.19"/><rect class="cls-21" x="461.61" y="334.9" width="13.36" height="24.68"/><rect class="cls-22" x="484.78" y="322.91" width="13.36" height="36.68"/><rect class="cls-21" x="507.95" y="311.09" width="13.36" height="48.5"/><rect class="cls-22" x="531.11" y="301.88" width="13.36" height="57.71"/><rect class="cls-21" x="554.28" y="290.58" width="13.36" height="69.01"/><rect class="cls-22" x="577.45" y="277.02" width="13.36" height="82.57"/><rect class="cls-18" x="602.71" y="256.21" width="138.87" height="123.59" rx="6.19"/><path class="cls-23" d="M609.84,341.22a142.54,142.54,0,0,1,8.43-12.78c4.76-6.43,7.19-9.66,9.82-9.9,5-.48,9.63,6.69,15,15.38,9.24,14.85,10,22.55,13.47,22.6,3.34,0,5.55-6.89,13.73-27.12,9.15-22.64,12.22-25.6,15.12-25.73,3.13-.14,6.66,4,13.73,12.34,6.7,7.88,8,11.14,10.08,10.78,3.16-.54,2.82-8.45,7.31-22.94,2.31-7.48,6.41-20.72,12-20.86,1.73-.05,3.2,1.19,4.17,2.26"/><circle class="cls-24" cx="685.07" cy="302.41" r="12.12"/><circle class="cls-17" cx="685.07" cy="302.41" r="6.52"/><rect class="cls-27" x="207.53" y="258.85" width="136.62" height="253.78" rx="8.48"/><rect class="cls-16" x="198.15" y="250.95" width="136.62" height="253.78" rx="8.48"/><rect class="cls-17" x="202.46" y="262.64" width="127.99" height="230.14"/><path class="cls-28" d="M587.75,499.81a46.75,46.75,0,0,1-13.1-17.15,47.52,47.52,0,0,1-2.22-31.32c6-22.06,26.32-31.33,30.76-33.36a67.92,67.92,0,0,1,58.56,3c4.37,2.54,20.64,12,26.13,31.68,1.42,5.08,5.49,19.69-3,33.36-6.38,10.31-16.32,14.33-20,15.61-.25-2.11-.49-4.23-.74-6.34A28.54,28.54,0,0,0,676,480.8a29.08,29.08,0,0,0,0-18.71,34.74,34.74,0,0,0-9.08-14.46,41.19,41.19,0,0,0-10.2-7.6q2.67,17.7,4.82,36.32.9,7.84,1.67,15.55l-64.3.76a233.23,233.23,0,0,1,.92-50.59A32.88,32.88,0,0,0,585.79,457c-4,8.73-2.76,16.71-2.06,20.87a41.15,41.15,0,0,0,6.12,15.56Z"/><path class="cls-29" d="M611,393.15a22.55,22.55,0,0,1-4.63-14.83,21,21,0,0,1,5.43-12,24.42,24.42,0,0,1,16.07-8,24,24,0,0,1,14.7,3.58A20.42,20.42,0,0,1,651.18,372a20.72,20.72,0,0,1,0,13.35,23.26,23.26,0,0,1-6.67,11.11C636.06,403.8,619,403.05,611,393.15Z"/><path class="cls-30" d="M614.07,390a14.66,14.66,0,0,0,1.26-3.88c.54-3.18-.33-4.58.74-6s3.54-1.67,4.17-1.66c2.24,0,2.78,1.3,5.56,2.22a14.18,14.18,0,0,0,6.67.46c3.81-.58,4.62-2.34,7.19-1.81a5.19,5.19,0,0,1,3.5,2.34c.71,1.42-.06,2.53.06,5.4a15.44,15.44,0,0,0,.55,3.52c1-1,2.09-1.63,2.92-1.32,1.25.46,1.35,2.78,1.16,4.1-.27,1.9-1.3,2.83-3.8,5.84-3.53,4.24-2.87,4.06-4.35,5.47a21.48,21.48,0,0,1-7.42,4.54,14.89,14.89,0,0,0-.14,3.61,14.66,14.66,0,0,0,.88,3.85c.53.17,6,2,6.58,5.74.73,4.41-5.51,9.22-11.21,9.17s-11.91-5.06-11.09-9.42c.67-3.54,5.65-5.23,6.32-5.45a19.71,19.71,0,0,0,.65-3.1,19.38,19.38,0,0,0,0-4.49,16.72,16.72,0,0,1-6.57-5.19c-1.32-1.8-1.34-2.7-3.15-4.82-2-2.31-2.89-2.32-3.8-4.08-1.12-2.16-1.37-5.29-.1-6C611.71,388.39,613.42,389.51,614.07,390Z"/><path class="cls-29" d="M617.25,541.66c-.75,2.59-4.31,2.18-9.82,4.61-6.37,2.81-11.68,7.77-19.91,15.47-2,1.9-3.32,3.2-4.36,2.8-2.28-.88-1.32-9.25.33-15.11,1-3.72,4.5-15.91,11.45-16.91,3.74-.54,5,2.67,11.36,2.43,3.38-.13,4.78-1.11,7-.1C615.85,536.05,617.93,539.31,617.25,541.66Z"/><path class="cls-31" d="M668.82,501.29c.64-.61,8.57-7.87,18.67-5.36,5.06,1.26,11.7,5.23,12.86,11.56,1.39,7.55-5.82,14.07-8.46,16.46-10.1,9.13-21.06,8.63-42.12,12.31A286,286,0,0,0,617,544l-1.58.47-5.34-10.27a147.68,147.68,0,0,1,58.7-32.86Z"/><path class="cls-29" d="M639.92,552.38c.3,2.68,3.87,2.88,8.9,6.2,5.8,3.84,10.2,9.63,17,18.61,1.68,2.22,2.72,3.72,3.81,3.5,2.4-.49,2.87-8.9,2.23-15-.41-3.85-1.75-16.44-8.43-18.61-3.6-1.16-5.38,1.79-11.61.48-3.31-.7-4.52-1.9-6.84-1.27C642.24,547.08,639.64,550,639.92,552.38Z"/><path class="cls-32" d="M595.89,503.88c-.52-.7-7.12-9.19-17.49-8.43-5.2.39-12.41,3.19-14.63,9.23-2.64,7.21,3.36,14.84,5.57,17.65,8.41,10.7,19.3,12.06,39.43,19.24a286.1,286.1,0,0,1,31,13.1l1.47.73,7-9.22a147.79,147.79,0,0,0-52.32-42.3Z"/><rect class="cls-33" x="581.42" y="458.38" width="100.81" height="66.34"/><rect class="cls-18" x="210.77" y="267.48" width="111.38" height="84.72" rx="6.19"/><path class="cls-19" d="M318.38,302.55a6,6,0,0,1-2,.56,7.78,7.78,0,0,1-5.27-1.94c-5.82-4.8-10.41-21.36-15.87-20.12-1.26.28-3.22,3.7-7.14,10.54-5.93,10.37-5.54,12.84-8,15.26-3.66,3.6-6-.08-16.27-5.84-7.38-4.16-11.06-6.23-12.94-5.85-9.71,2-11.63,21.2-19.55,19.8-3.74-.66-6.63-5.56-11.4-13.63a82,82,0,0,1-5.4-11v52.83H318.38Z"/><path class="cls-20" d="M318.38,284.69a4.79,4.79,0,0,0-6.2,1.06c-2.6,2.74-3,7-6,11.36s-5.92,5-7,5.19c-4.15.83-6.79-2.9-11-7-7.52-7.28-11.28-10.91-14.87-9.9-6.54,1.83-6.85,14.82-18.88,29.37-7,8.42-9.31,7-10.2,6.33-4.67-3.72-4.34-16.81-9.47-21.59-4.61-4.28-9.58,1.88-11.21,3.9-3.93,4.87-6.24,12.51-7.47,16.55-.56,1.86-1,3.51-1.53,5.82v17.38H318.38Z"/><path class="cls-21" d="M318.38,324.82a23,23,0,0,1-4.8-2.88c-7.4-5.65-7.32-10.76-10.81-10.55-5,.3-5.66,10.87-12.71,14a8.84,8.84,0,0,1-7.28-.17c-7.45-3-8.24-12.52-13.21-13.47-5.49-1-6,10.26-14.41,14.45a11.89,11.89,0,0,1-13.71-1.79c-5.63-4.79-5.94-11.36-10.81-13.14s-9,3.23-11,5.68a36.1,36.1,0,0,0-5.08,8v18.25H318.38Z"/><rect class="cls-18" x="210.77" y="358.09" width="111.38" height="84.72" rx="6.19"/><rect class="cls-21" x="215.06" y="414.01" width="10.72" height="19.8"/><rect class="cls-22" x="233.65" y="404.39" width="10.72" height="29.42"/><rect class="cls-21" x="252.23" y="394.91" width="10.72" height="38.9"/><rect class="cls-22" x="270.81" y="387.52" width="10.72" height="46.29"/><rect class="cls-21" x="289.4" y="378.46" width="10.72" height="55.35"/><rect class="cls-22" x="307.98" y="367.58" width="10.72" height="66.23"/><g class="cls-34"><rect class="cls-18" x="210.63" y="448.71" width="111.38" height="84.72" rx="6.19"/><path class="cls-23" d="M216.36,509.69a113.9,113.9,0,0,1,6.76-10.24c3.81-5.17,5.77-7.75,7.87-7.95,4.06-.38,7.73,5.37,12.06,12.34,7.42,11.91,8,18.08,10.81,18.12s4.45-5.52,11-21.75c7.35-18.16,9.81-20.53,12.13-20.63,2.51-.11,5.35,3.22,11,9.9,5.37,6.32,6.42,8.93,8.08,8.64,2.53-.43,2.26-6.78,5.86-18.4,1.86-6,5.15-16.62,9.62-16.73a4.69,4.69,0,0,1,3.35,1.81"/><circle class="cls-24" cx="276.7" cy="478.57" r="9.72"/><circle class="cls-17" cx="276.7" cy="478.57" r="5.23"/></g><path class="cls-35" d="M477.24,168.17c-2.56.12-5.12.18-7.67.37-1.24.1-1.69-.25-1.84-1.55-.48-4.17-2.09-7.79-5.77-10.17a13.91,13.91,0,0,0-8.88-2,27.71,27.71,0,0,0-6.45,1.27,1,1,0,0,1-1.36-.47q-3.76-5.82-7.56-11.62c-.47-.71-.23-1.1.35-1.56a23.14,23.14,0,0,0,4.57-4.9c2.66-3.82,2.37-7.65.25-11.52a37.21,37.21,0,0,0-5.89-8,1.66,1.66,0,0,1-.32-2.33q3.29-5.72,6.38-11.55c.55-1.05,1.1-1.13,2.12-.75,4.64,1.75,9.23,1.95,13.46-1.08a16.79,16.79,0,0,0,6.94-11.27c.24-1.49.84-1.87,2.24-1.91q6.06-.14,12.1-.55c1.43-.1,1.86.41,2,1.73a13.83,13.83,0,0,0,6,10.2,11.69,11.69,0,0,0,6.45,2,24.75,24.75,0,0,0,9.38-1.49,1.15,1.15,0,0,1,1.64.59c2.23,3.74,4.49,7.45,6.75,11.17a1,1,0,0,1-.17,1.51,19.17,19.17,0,0,0-5.9,12.63,13.33,13.33,0,0,0,3.93,10,17.78,17.78,0,0,0,3,2.66,1,1,0,0,1,.34,1.46c-2,4-4,8-5.93,12.08-.41.84-.91.79-1.63.57a19.32,19.32,0,0,0-11.12-.33c-5.92,1.72-9.24,6.65-8.45,12.78.18,1.43-.28,1.68-1.51,1.7C482.25,167.9,479.75,168.06,477.24,168.17ZM474,107.07a21.25,21.25,0,1,0,22.21,20.14A21.11,21.11,0,0,0,474,107.07Z"/><path class="cls-36" d="M136.45,501.13c-1-.51-1.94-1.05-2.93-1.53-.49-.23-.58-.46-.35-1a5.66,5.66,0,0,0,.06-5,6,6,0,0,0-2.88-2.67,12.16,12.16,0,0,0-2.68-.93.44.44,0,0,1-.4-.47c-.1-2-.19-4-.3-6,0-.37.16-.46.47-.51a10.05,10.05,0,0,0,2.77-.83A4.37,4.37,0,0,0,132.8,478a15.73,15.73,0,0,0-.46-4.26.71.71,0,0,1,.39-.93c1.65-.95,3.27-1.92,4.88-2.92.44-.27.66-.19,1,.18a5.86,5.86,0,0,0,5.25,2.52,7.25,7.25,0,0,0,5-2.7.82.82,0,0,1,1.25-.22q2.29,1.26,4.63,2.42c.55.28.6.56.38,1.09a6,6,0,0,0,0,5.11,5,5,0,0,0,2,2.15,10.69,10.69,0,0,0,3.81,1.48.5.5,0,0,1,.49.58c0,1.87.05,3.75.09,5.63a.45.45,0,0,1-.39.52,8.34,8.34,0,0,0-5,3.43,5.77,5.77,0,0,0-.7,4.57,8.64,8.64,0,0,0,.55,1.65c.14.29.07.45-.19.62-1.61,1.06-3.23,2.12-4.83,3.21-.33.23-.51.1-.73-.14a8.31,8.31,0,0,0-4.07-2.54,4.85,4.85,0,0,0-5.93,2.93c-.24.57-.46.57-.93.3C138.38,502.12,137.41,501.63,136.45,501.13Zm12.07-23.47a9.16,9.16,0,1,0,3.9,12.33A9.11,9.11,0,0,0,148.52,477.66Z"/><path class="cls-37" d="M584,86.31c-.86-.45-1.72-.92-2.59-1.35-.43-.2-.51-.4-.31-.86a5,5,0,0,0,.05-4.45,5.23,5.23,0,0,0-2.54-2.35,10.32,10.32,0,0,0-2.36-.82.41.41,0,0,1-.36-.42c-.08-1.75-.16-3.51-.25-5.26,0-.33.13-.41.41-.45a8.8,8.8,0,0,0,2.44-.73,3.89,3.89,0,0,0,2.29-3.74,14,14,0,0,0-.41-3.76.64.64,0,0,1,.35-.83c1.44-.83,2.88-1.69,4.3-2.57.38-.24.58-.16.84.16a5.16,5.16,0,0,0,4.63,2.22,6.38,6.38,0,0,0,4.44-2.37.72.72,0,0,1,1.1-.2c1.35.74,2.71,1.46,4.09,2.14.48.24.53.48.33.95a5.24,5.24,0,0,0,0,4.51,4.41,4.41,0,0,0,1.73,1.9,9.57,9.57,0,0,0,3.37,1.3c.31,0,.42.19.43.51,0,1.65,0,3.31.07,5a.39.39,0,0,1-.34.47,7.28,7.28,0,0,0-4.36,3,5.09,5.09,0,0,0-.62,4,6.78,6.78,0,0,0,.49,1.46c.12.26.06.39-.17.54-1.42.94-2.85,1.88-4.26,2.84-.3.19-.45.08-.65-.13a7.33,7.33,0,0,0-3.59-2.24,4.28,4.28,0,0,0-5.22,2.58c-.22.51-.41.51-.83.27C585.65,87.18,584.79,86.75,584,86.31Zm10.64-20.7A8.08,8.08,0,1,0,598,76.48,8,8,0,0,0,594.59,65.61Z"/></svg>