<svg id="图层_1" data-name="图层 1" xmlns="http://www.w3.org/2000/svg" xmlns:xlink="http://www.w3.org/1999/xlink" viewBox="0 0 1175.45 614.75"><defs><style>.cls-1,.cls-19,.cls-20,.cls-34,.cls-37{fill:none;}.cls-2{fill:#767bba;}.cls-3{fill:#fff;}.cls-4{fill:#86cfe8;}.cls-5{fill:#87b8e4;}.cls-6{fill:#c7e6e7;}.cls-7{clip-path:url(#clip-path);}.cls-8{fill:url(#未命名的渐变_44);}.cls-9{fill:url(#未命名的渐变_48);}.cls-10{fill:url(#未命名的渐变_53);}.cls-11{fill:#a5a5a5;opacity:0.28;}.cls-12{fill:#7179b9;}.cls-13{fill:#1c3286;}.cls-14{fill:#1e318d;}.cls-15{fill:#113793;}.cls-16{fill:#9fd8eb;}.cls-17{fill:#a9dae2;}.cls-18{fill:#adb3da;}.cls-19,.cls-20{stroke:#a9dae2;}.cls-19,.cls-20,.cls-37{stroke-linecap:round;}.cls-19,.cls-34,.cls-37{stroke-miterlimit:10;}.cls-20{stroke-linejoin:round;}.cls-21{fill:#f7c2ae;}.cls-22{fill:#445299;}.cls-23{fill:#5abcd5;}.cls-24{fill:#feffff;}.cls-25{fill:#2d2717;}.cls-26,.cls-31{fill:#cae7e8;}.cls-27,.cls-28{fill:#3d8fce;}.cls-28,.cls-30,.cls-31{opacity:0.3;}.cls-29,.cls-30{fill:#3ab1ab;}.cls-32{fill:#6f83c0;fill-opacity:0.5;}.cls-33{fill:url(#未命名的渐变_4);}.cls-34,.cls-37{stroke:#fff;}.cls-35{fill:#42a0d4;}.cls-36{fill:#737aba;}</style><clipPath id="clip-path"><path class="cls-1" d="M461.06,560.06c-81.42-1.13-102.77,12-155.61,11.11-49-.83-100.17-1.71-130.51-37.78-26.27-31.23-32-83-23.68-111.79,1.17-4,5-19.35,11.47-41.33a269,269,0,0,0,7-31.18c3.15-18.4,6.41-37.48,5.28-59.42-.62-12.27-2.81-19.86-5.15-30.61-5.73-26.42-12.47-66.07-12.78-87.32-.74-50.81,33.94-90.73,39.63-97.1C244,21.77,321.82,13.07,371.89,27c15,4.18,19.63,8.19,41.34,13.14,49.12,11.21,88.64,5.09,96.38,3.8,50.56-8.38,47.75-26.47,93.14-33,18.1-2.6,58.39-8.38,94.64,12.41,32.35,18.56,32.79,41.82,70.11,56.85,7.23,2.91,26.27,10.34,50.26,8.29C859.11,85,864.32,57.63,908.2,47.39c35.46-8.27,65.59,1.76,76.25,5.45,14.07,4.89,47.16,16.36,66.38,48.55,5.5,9.21,15.81,30.07,12.88,71.34-4.17,58.78-30.81,97.44-45.8,126.15-59,113,11.77,168.86-37.43,236.5C912.2,629.25,704,620.32,627.24,591.64,615.08,587.1,569.08,568.19,461.06,560.06Z"/></clipPath><linearGradient id="未命名的渐变_44" x1="649.61" y1="209.24" x2="773.15" y2="843.1" gradientUnits="userSpaceOnUse"><stop offset="0" stop-color="#4cb9db"/><stop offset="0.31" stop-color="#42b1ce"/><stop offset="0.71" stop-color="#7ac9c8"/></linearGradient><linearGradient id="未命名的渐变_48" x1="715.19" y1="-56.35" x2="478.68" y2="590.43" gradientUnits="userSpaceOnUse"><stop offset="0.25" stop-color="#5ec3dc"/><stop offset="0.71" stop-color="#46acd8"/><stop offset="1" stop-color="#3899ba"/></linearGradient><linearGradient id="未命名的渐变_53" x1="976.65" y1="-35.91" x2="10.55" y2="150.22" gradientUnits="userSpaceOnUse"><stop offset="0" stop-color="#54c1df"/><stop offset="0.48" stop-color="#47ade1"/><stop offset="0.96" stop-color="#387fc2"/></linearGradient><linearGradient id="未命名的渐变_4" x1="290.82" y1="22.46" x2="467.66" y2="159.49" gradientUnits="userSpaceOnUse"><stop offset="0" stop-color="#41abe2"/><stop offset="1" stop-color="#3c70b7"/></linearGradient></defs><title>feature1</title><path class="cls-2" d="M190.08,543.58a344,344,0,0,1-73.53-12c-21.93-6.13-30.9-11.13-33.35-19.44-2.4-8.12,1.6-18.89,9-24.29,15.27-11.14,38.21,5.44,44.57-2.61,4.67-5.9-1.38-22.78-13.27-32.79-23.66-19.93-55,.41-70.63-17.56-10.63-12.18-7.84-34.79-.39-38.53s17.29,12.48,38.78,12.35c2.72,0,14.13-.09,16.29-5.44,2.42-6-9.38-12.07-16.69-25.19C81.63,361.5,80,334.29,94.55,320.69c12.5-11.65,35.78-12.25,41.25-3.93,5,7.64-8.35,17.68-9.18,41.81-.44,12.9,2.7,29.92,9.61,31.44s10.58-14.51,27.58-24.38c16.76-9.74,40.53-10,44.85-1.9,5.3,9.88-17,35-31.36,47.77-12.31,10.92-21.33,15-23.6,26.11-2.1,10.24,2.31,22.62,8.22,23.75,9.49,1.81,14.74-27,29.64-28.33,15.6-1.41,38.34,27.55,33.22,48.3-4,16.16-22.78,18.81-31.28,43A61.53,61.53,0,0,0,190.08,543.58Z"/><path class="cls-3" d="M187.3,539.51A481.14,481.14,0,0,1,141,450c-6-15.35-11.34-31-15.92-46.84-5-17.23-8.84-34.86-7.24-52.88.23-2.57-3.78-2.55-4,0-1.57,17.72,2,35.17,6.87,52.14q7,24.69,16.43,48.65a486.13,486.13,0,0,0,46.68,90.46c1.41,2.14,4.88.14,3.45-2Z"/><path class="cls-3" d="M131.48,431.6c-18.9-1.71-37-4.52-51.93-17.22-2-1.66-4.79,1.16-2.82,2.83,15.79,13.44,34.7,16.57,54.75,18.39,2.56.23,2.54-3.77,0-4Z"/><path class="cls-3" d="M141,450.79c-.94-5.48-2-11.3-.63-16.81,1.13-4.51,3.69-8.43,6.58-12,5.68-7,12.07-13.57,18.12-20.28,1.72-1.91-1.1-4.75-2.83-2.83-7.19,8-15.45,15.71-21.42,24.69s-5.42,18.17-3.67,28.3c.43,2.53,4.29,1.46,3.85-1.06Z"/><path class="cls-3" d="M175.7,522.91a95.41,95.41,0,0,1-57.11-19.67c-2-1.56-4,1.91-2,3.45a99,99,0,0,0,59.13,20.22c2.57,0,2.57-4,0-4Z"/><path class="cls-4" d="M176.21,526.49A42.53,42.53,0,0,1,163.67,503c-.7-4.16-2.09-16.32,5.22-28.07A38.92,38.92,0,0,1,179,464.17,48.47,48.47,0,0,1,189.13,491C190.22,510.59,178.6,523.87,176.21,526.49Z"/><path class="cls-4" d="M116.58,488.38a34.09,34.09,0,0,1-9-18.57c-.48-3.3-1.42-13,4-22.36A30.64,30.64,0,0,1,119,438.8a40,40,0,0,1,7.24,21.29A42.34,42.34,0,0,1,116.58,488.38Z"/><path class="cls-4" d="M68.47,478.05a28,28,0,0,1-8.89-15.44,25.2,25.2,0,0,1,3.55-18.39,25.7,25.7,0,0,1,7-7.05,31.14,31.14,0,0,1,7.25,17.66C78.23,467.67,70.13,476.34,68.47,478.05Z"/><path class="cls-4" d="M36,480.51a13.91,13.91,0,0,1-4.44-7.71,12.58,12.58,0,0,1,1.77-9.2,13,13,0,0,1,3.51-3.53A14.91,14.91,0,0,1,36,480.51Z"/><path class="cls-4" d="M7.25,511a16.61,16.61,0,0,1,6.19-19.32,15.25,15.25,0,0,1,5.25-2.18,19.12,19.12,0,0,1-1.05,11.09A20,20,0,0,1,7.25,511Z"/><path class="cls-4" d="M33.75,509a23.93,23.93,0,0,1,8.92-27.85A21.65,21.65,0,0,1,50.25,478a27.54,27.54,0,0,1-1.52,16A28.79,28.79,0,0,1,33.75,509Z"/><path class="cls-4" d="M71.49,514.75a30.11,30.11,0,0,1,4.39-18.16A29.51,29.51,0,0,1,91.69,484,27.29,27.29,0,0,1,102,482.86a34.53,34.53,0,0,1-7.2,18.9C86.22,512.65,74,514.44,71.49,514.75Z"/><path class="cls-4" d="M111.48,546.79a40,40,0,0,1,7.68-24.36c2.39-3.18,9.83-12,22.87-14a37.27,37.27,0,0,1,14.25.66,44.44,44.44,0,0,1-11.62,24.76C131.91,547.17,114.9,546.91,111.48,546.79Z"/><path class="cls-4" d="M189.54,540a158.25,158.25,0,0,0-18-20.15C165.75,514.36,139,490,95,479.74c0,0-36.84-8.54-59.83.24-3.33,1.27-6.5,2.82-6.5,2.82a79,79,0,0,0-13,8l.52,1.94a69.64,69.64,0,0,1,14.26-8.38,83.39,83.39,0,0,1,21.8-5.56c15.28-1.65,45.49.42,77.56,16.11a161.71,161.71,0,0,1,41.58,29A156.06,156.06,0,0,1,187,541.63Z"/><path class="cls-5" d="M988.7,488.1c.17-.67,2.24-8.17,9.12-10.5,8.38-2.83,15.62,4.78,16.64,5.84,4.69,4.93,7.48,13.27,4.42,16.06-2.64,2.41-9.64.74-14-2.32-4.56-3.22-5.11-7.25-10-8.81A12.61,12.61,0,0,0,988.7,488.1Z"/><path class="cls-5" d="M995.13,449.83c.33-.86,4.17-10.46,13.86-14.25,11.79-4.6,20.59,3.95,21.82,5.15,5.7,5.54,8.35,15.57,3.79,19.45-3.92,3.33-13.21,2.15-18.67-1.11-5.75-3.43-5.94-8.38-12.36-9.7A19,19,0,0,0,995.13,449.83Z"/><path class="cls-5" d="M996.34,407.8c.49-1.18,6.16-14.26,19.67-19.71,16.44-6.61,28.25,4.61,29.9,6.18,7.66,7.27,10.93,20.69,4.49,26.08-5.53,4.63-18.3,3.37-25.71-.83-7.8-4.43-7.87-11.09-16.68-12.65A26.85,26.85,0,0,0,996.34,407.8Z"/><path class="cls-5" d="M1012.43,369.79c1.37-1.68,9.48-11.3,23.48-12.68,1.06-.1,16-1.36,25.53,8l.57.57c9.2,9.7,10.79,27.21,5.09,30.52-5.06,2.93-15.85-5.27-20.61-8.88-7.89-6-8.82-9.74-15.49-13.4A36.77,36.77,0,0,0,1012.43,369.79Z"/><path class="cls-5" d="M1035.41,346.47c1.48-1.53,10.17-10.29,23.2-13.1,1-.21,14.85-3,22.36,3.39.08.06.24.2.45.4,7.17,6.73,6.34,20.7.67,24.07-5,3-13.84-2.35-17.73-4.69-6.46-3.9-6.82-6.81-12.46-9S1039.82,345.8,1035.41,346.47Z"/><path class="cls-5" d="M1057.54,322c1.88-1.05,12.68-7.3,18.35-18.88.43-.88,6.3-13.25,1.37-21.67,0-.08-.15-.26-.31-.5-5.31-8.16-19.72-10.4-24.38-5.82-4.12,4.06-.6,13.46,1,17.61,2.58,6.88,5.47,7.85,6.45,13.59S1059.17,318,1057.54,322Z"/><path class="cls-5" d="M1041.33,340.59c.69-2,4.52-13.42.74-25.53-.29-.91-4.47-13.73-14.07-16.78l-.59-.17c-9.72-2.61-22.21,4.91-22.55,11.23-.3,5.6,8.94,10.26,13,12.31,6.76,3.42,9.63,2.29,14.37,5.88S1039.79,336.62,1041.33,340.59Z"/><path class="cls-5" d="M1017.79,361.68c.28-2.21,1.73-15-5.73-26.6-.56-.88-8.66-13.12-20.47-13.94l-.71,0c-11.83-.35-24.22,10.47-23,17.09,1.1,5.87,12.9,8.45,18.1,9.58,8.63,1.89,11.63,0,18,2.6S1015,358,1017.79,361.68Z"/><path class="cls-5" d="M999.27,392.8c.28-2.21,1.73-15-5.73-26.6-.56-.88-8.66-13.13-20.47-13.94l-.72,0c-11.82-.34-24.22,10.47-23,17.1,1.1,5.86,12.9,8.45,18.1,9.58,8.63,1.89,11.63,0,18,2.59S996.48,389.07,999.27,392.8Z"/><path class="cls-5" d="M994.85,435.76c-.51-2.14-3.61-14.47-13.86-23.57-.77-.69-11.78-10.23-22-8.17l-.62.14c-10.13,2.51-17,15.62-13.66,21.54,2.92,5.23,13.79,4.83,18.57,4.65,7.95-.3,9.86-2.76,16.12-1.88S991.23,432.93,994.85,435.76Z"/><path class="cls-5" d="M989.83,493.59c1.26-6.57,3-16.43,4.38-28.47,2.65-22.67,1.45-29.64,3.52-45.3,3.14-23.63,4.7-35.44,12.5-46,10.61-14.39,34.42-32,42.68-42.88,1.71-2.23,3.34-4.53,3.34-4.53,3.55-5,6.26-9.4,8.22-12.79l-2.48-.18a89.91,89.91,0,0,1-10.07,15.09c-1.76,2.14-4.42,5.17-11.91,12.19-8.9,8.35-11.21,9.75-16.86,15-8.27,7.66-14.71,13.62-19.7,22.05s-6.21,15.3-8.27,26.84c-1.71,9.6-.82,10.13-2.87,39.05-1,13.77-1.64,20.22-2.2,25-1,8.79-2.13,16.05-3,21Z"/><path class="cls-6" d="M981,518.49c.53-.5,6.55-6,13.65-4.19,8.63,2.2,10.33,13,10.57,14.53,1.1,7-1.34,16-5.51,16.74-3.58.65-8.48-4.76-10.35-9.91-2-5.42-.11-9.3-3.3-13.43A12.22,12.22,0,0,0,981,518.49Z"/><path class="cls-6" d="M1008.34,488.16c.77-.58,9.49-6.94,19.76-4.85,12.5,2.55,15,15.08,15.3,16.83,1.6,8.13-1.93,18.51-8,19.39-5.18.75-12.28-5.52-15-11.48-2.85-6.28-.17-10.77-4.78-15.56A18.28,18.28,0,0,0,1008.34,488.16Z"/><path class="cls-6" d="M1033.44,451.55c1.08-.76,13.32-9.18,27.74-6.41,17.54,3.37,21,20,21.48,22.28,2.24,10.76-2.72,24.5-11.18,25.66-7.29,1-17.24-7.3-21-15.19-4-8.31-.23-14.27-6.71-20.6A25.87,25.87,0,0,0,1033.44,451.55Z"/><path class="cls-6" d="M1068.67,426.89c2.11-.72,14.41-4.7,26.91,2,1,.5,14.18,7.79,16.78,21.45,0,.13.08.43.14.83,2.15,13.77-6.55,30.2-13.23,29.93-5.91-.25-10.24-13.59-12.14-19.46-3.17-9.76-1.81-13.61-5.29-20.6A36.11,36.11,0,0,0,1068.67,426.89Z"/><path class="cls-6" d="M1101.26,419.12c2.11-.52,14.41-3.41,26.91,1.42.95.37,14.17,5.66,16.78,15.58,0,.1.08.32.14.61,2.14,10-6.56,21.93-13.23,21.73-5.91-.17-10.24-9.86-12.15-14.13-3.16-7.09-1.8-9.88-5.28-15S1105.33,421,1101.26,419.12Z"/><path class="cls-6" d="M1133.79,409.86c2.18.12,14.8.66,26.18-6.43.85-.54,12.86-8.21,13.56-18.45,0-.09,0-.32,0-.62.24-10.22-10.54-20.31-17.06-18.87-5.77,1.28-8.21,11.61-9.29,16.16-1.78,7.55.08,10-2.39,15.68S1137.44,407.25,1133.79,409.86Z"/><path class="cls-6" d="M1109.58,417.23c1.71-1.36,11.47-9.36,15.25-22.23.28-1,4.13-14.69-2.17-22.79l-.39-.48c-6.63-7.78-21.39-8.14-25.29-2.72-3.46,4.8,1.6,14.13,3.82,18.24,3.7,6.83,6.74,7.44,8.66,13.29S1110.56,412.85,1109.58,417.23Z"/><path class="cls-6" d="M1077.81,422.71c1.5-1.8,10-12.32,10.44-26.82,0-1.09.27-16.51-9.14-23.87l-.58-.43c-9.69-7-26.26-4.33-29,2.24-2.44,5.82,6,14.75,9.65,18.68,6.14,6.53,9.71,6.57,13.58,12.42S1077.61,417.83,1077.81,422.71Z"/><path class="cls-6" d="M1044.48,439.89c1.5-1.79,10-12.32,10.45-26.81,0-1.09.27-16.51-9.14-23.87l-.58-.44c-9.7-6.95-26.27-4.33-29,2.25-2.44,5.82,5.95,14.74,9.65,18.68,6.14,6.52,9.72,6.56,13.58,12.42S1044.28,435,1044.48,439.89Z"/><path class="cls-6" d="M1016.17,475.52c.8-2.18,5.27-14.86,1.91-28.7-.26-1-4-15.7-13.77-19.64-.09,0-.31-.13-.6-.23-9.91-3.47-23.14,4.33-23.77,11.42-.55,6.29,8.77,12,12.87,14.57,6.82,4.21,9.83,3.1,14.57,7.4S1014.76,471,1016.17,475.52Z"/><path class="cls-6" d="M978.83,524c4.83-5.12,11.91-12.89,20-22.79,15.2-18.61,18.19-25.47,28.9-38.2,16.16-19.19,24.24-28.79,36.83-33.8,17.12-6.81,47.16-9.07,60.27-14,2.71-1,5.4-2.15,5.4-2.15,5.82-2.43,10.62-4.82,14.2-6.72l-2-1.56a93.62,93.62,0,0,1-17.07,7.73c-2.7.9-6.66,2.09-17,4.12-12.22,2.39-15,2.34-22.68,3.8-11.3,2.14-20.11,3.81-29.12,8.48s-14,10.08-22.29,19.16c-6.93,7.55-6.49,8.52-24.77,33-8.7,11.66-13,17-16.18,21-5.9,7.23-11,13-14.54,17Z"/><g class="cls-7"><path class="cls-8" d="M212.47,620.19c48.93,40.09,138.59,42.48,277.88,46.2,191.1,5.1,420.26,11.21,579.45-95.7,154.8-104,137.55-243.69,134.33-269.76-6.48-52.48-17.82-144.34-117.21-188.92-172.9-77.56-512.07,32.94-694,160C254.46,368.76,114.36,539.79,212.47,620.19Z"/><path class="cls-9" d="M778.76.64c57.83-3.23,140.16-3.49,234.41,11.55,59.6,9.51,92,15,115.89,33,53,40,35.27,120.22-27.65,169.94-63.39,50.09-125,31.58-347.67,98.17-185.51,55.48-208.07,87.85-212,108.07-5.59,28.53,23.42,45.23,11.85,85.8-10,35.05-41.92,58.59-55.31,68.47-81.34,60-257.25,91.7-342.41,52.8-65.61-30-39.1-84.38-15.8-323.39C162.91,70.48,146.27,31.54,208.52-6.79,364.38-102.75,721.12-14.13,778.76.64Z"/><path class="cls-10" d="M973-103.72c16.55,5,93.86,29.84,124.45,86.62,5.73,10.65,31.14,57.8-5.93,100.24-40.64,46.53-130,57.22-189.64,64.34-96.41,11.53-180.52,1.13-294.33-13.61-132.5-17.16-135.09-28.52-169.89-21-100.95,21.71-77.23,116.91-215.32,172-28,11.19-82.32,32.84-124.45,21C11,281.52-8.88,119,105.8,11.36,204.28-81.07,372.48-105.36,481.13-121,697.59-152.3,880.56-123.19,973-103.72Z"/></g><ellipse class="cls-11" cx="297.97" cy="591.38" rx="14.7" ry="4.44"/><path class="cls-12" d="M569.13,542.52H448.75A102.69,102.69,0,0,0,464,514.87a98.86,98.86,0,0,0,4.93-19.68h80a68.52,68.52,0,0,0,3.34,19.53A72.67,72.67,0,0,0,569.13,542.52Z"/><rect class="cls-13" x="262.61" y="171.67" width="492.66" height="323.52" rx="5.86"/><rect class="cls-14" x="439.06" y="538.23" width="139.76" height="6.99"/><circle class="cls-12" cx="508.94" cy="469.7" r="12.39"/><rect class="cls-3" x="275.47" y="187.4" width="466.93" height="260.15"/><rect class="cls-12" x="275.47" y="433.25" width="466.93" height="14.29"/><rect class="cls-15" x="203.85" y="200.84" width="256.89" height="340.89" rx="12.55"/><rect class="cls-3" x="208.41" y="227.23" width="247.77" height="309.36" rx="12.55"/><rect class="cls-15" x="203.85" y="200.84" width="256.89" height="39.6" rx="12.55"/><circle class="cls-3" cx="234.34" cy="220.21" r="4.18"/><circle class="cls-3" cx="252.51" cy="220.21" r="4.18"/><circle class="cls-3" cx="270.67" cy="220.21" r="4.18"/><rect class="cls-16" x="221.62" y="253.21" width="220.62" height="180.04" rx="13.21"/><rect class="cls-17" x="221.62" y="444.55" width="220.62" height="74.31" rx="13.21"/><rect class="cls-3" x="245.95" y="268.51" width="110.64" height="11.26" rx="2.64"/><rect class="cls-3" x="245.95" y="283.57" width="110.64" height="11.26" rx="2.64"/><rect class="cls-3" x="245.95" y="393.8" width="110.64" height="11.26" rx="2.64"/><rect class="cls-3" x="245.95" y="408.85" width="110.64" height="11.26" rx="2.64"/><rect class="cls-3" x="269.4" y="464" width="110.64" height="11.26" rx="2.64"/><rect class="cls-3" x="269.4" y="481.7" width="110.64" height="11.26" rx="2.64"/><rect class="cls-3" x="245.95" y="309.9" width="110.64" height="18.19" rx="2.64"/><rect class="cls-3" x="245.95" y="360.54" width="160.84" height="18.19" rx="2.64"/><rect class="cls-3" x="245.95" y="334.76" width="110.64" height="18.19" rx="2.64"/><circle class="cls-18" cx="385.27" cy="331.42" r="21.52"/><path class="cls-15" d="M364.72,333.12a21.52,21.52,0,0,1,40.43-9.94,21.52,21.52,0,1,0-38.79,18.51A21.29,21.29,0,0,1,364.72,333.12Z"/><circle class="cls-3" cx="251.5" cy="469.7" r="5.55"/><circle class="cls-3" cx="251.5" cy="487.33" r="5.55"/><line class="cls-19" x1="249.09" y1="472.2" x2="254.08" y2="467.2"/><line class="cls-19" x1="254.08" y1="472.2" x2="249.09" y2="467.2"/><path class="cls-20" d="M247.81,487.45l2.38,2.38,5-5"/><rect class="cls-15" x="527.52" y="124.38" width="467.83" height="340.89" rx="12.55"/><rect class="cls-3" x="533.18" y="150.77" width="456.5" height="309.36" rx="12.55"/><rect class="cls-15" x="527.52" y="124.38" width="467.83" height="39.6" rx="12.55"/><circle class="cls-3" cx="558.01" cy="143.76" r="4.18"/><circle class="cls-3" cx="576.18" cy="143.76" r="4.18"/><circle class="cls-3" cx="594.34" cy="143.76" r="4.18"/><path class="cls-21" d="M339.53,374.81c0-6.05.15-10.72.35-13.94s.39-5-.25-7.68c-.69-2.95-1.61-3.62-2.41-7-.31-1.32-1.59-6.72.08-7.62s5.28,3.12,5.56,3.44c.93,1.05,3.32,3.72,3.25,7.26,0,2.2-1,2.54-1.81,5.13-1.13,3.57-.27,7.67,1.5,15.71.51,2.32,1,4.27,1.39,5.71Z"/><path class="cls-22" d="M337,375l10.86-4.28,3.81,17.14-15,3.49Z"/><circle class="cls-23" cx="360.41" cy="342.24" r="21.52"/><path class="cls-15" d="M365.77,362.16a21.52,21.52,0,0,0-4.33-41.41,21.52,21.52,0,1,1-4.3,42.76A21.49,21.49,0,0,0,365.77,362.16Z"/><path class="cls-24" d="M349.4,335.57a12.83,12.83,0,0,0,0,13.34Z"/><path class="cls-24" d="M360.41,329.36a14,14,0,0,0-1.84.14V355a14,14,0,0,0,1.84.14,12.88,12.88,0,1,0,0-25.76Z"/><path class="cls-24" d="M354.91,353.87a12,12,0,0,0,1.83.71V329.9a13.07,13.07,0,0,0-1.83.71Z"/><path class="cls-24" d="M353.07,331.66a12.86,12.86,0,0,0-1.83,1.54v18.08a12.86,12.86,0,0,0,1.83,1.54Z"/><path class="cls-21" d="M332.9,354.39a14.62,14.62,0,0,1,2.82,5.12c1.36,4.39,1.13,11.29-3.09,13.69a7.65,7.65,0,0,1-5.48.62,10.87,10.87,0,0,0,1,9.1l-11.66-2.74a12,12,0,0,0,1.41-3.62,12.71,12.71,0,0,0-1.06-8c-.37-.42-5.11-5.9-3.44-10.42C315.11,353.39,323.6,350.2,332.9,354.39Z"/><path class="cls-25" d="M321.91,362.51c-.06-3.39.9-4.76,1.77-5.39,1.81-1.29,3.78.51,8-.26,1.55-.28,3.94-.71,5.2-2.6a6.15,6.15,0,0,0,.41-5.39c-2-5.1-11.63-7.57-18.86-4.82a16.89,16.89,0,0,0-6.71,4.77,8.46,8.46,0,0,0-2.84,1.76c-4.11,3.9-3.16,11.45-1,16.17.56,1.21,3.37,7.23,8.57,7.95,1.75.25,4.57,0,5.47-1.68s-.41-4.06-.79-4.77c-1.26-2.33-2.82-2.65-2.92-4.41,0-.81.21-2.14,1.15-2.48A2.31,2.31,0,0,1,321.91,362.51Z"/><path class="cls-21" d="M373.17,374.09c1.69-6.5,3.26-11.46,4.41-14.85s1.86-5.23,1.95-8.33c.11-3.36-.68-4.35-.57-8.17.05-1.5.24-7.67,2.29-8.16s4.76,4.88,5,5.31c.7,1.39,2.48,4.95,1.39,8.73-.69,2.36-1.8,2.45-3.43,5-2.26,3.52-2.52,8.16-2.94,17.31-.12,2.64-.16,4.87-.16,6.53Z"/><path class="cls-12" d="M295.94,579.41a10.15,10.15,0,0,0-6,3.27c-.54.64-2.17,2.59-1.55,4.16.42,1.09,1.73,1.5,2.69,1.8,10.18,3.18,9.8,3.2,11.35,3.43a19,19,0,0,0,8.73-.49c.73-.24,1.42-.53,1.47-1,.1-.92-2.53-1.46-6.61-3.92-2.9-1.75-4.13-3-5-4.41a10.63,10.63,0,0,1-1-2.12Z"/><path class="cls-15" d="M301.49,460.06a90.19,90.19,0,0,0,.08,11.92c.66,8.94,2.13,14,4.33,25.47,1.79,9.29,2.69,13.94,3.06,18.45,1.09,13.29-1.33,23.68-3.31,31.84a126.56,126.56,0,0,1-12.49,31.84l7.51,2.94a130.11,130.11,0,0,0,19.8-35,118.84,118.84,0,0,0,7.1-31.1,131.21,131.21,0,0,0-.12-23.51c-.44-5-1.07-9.21-1.63-12.41a123.89,123.89,0,0,1,9.1,20.37,133.54,133.54,0,0,1,6,27.31,147.58,147.58,0,0,1-1.12,41.59l4.28-.45c1.94-.21,3.84-.44,5.73-.68,2.21-8.69,3.63-16.32,4.58-22.46,1.4-9,2.84-18.55,2.57-31.11a168.7,168.7,0,0,0-2.08-22.16c-1.24-8.54-2.4-16.32-5.88-26a104.09,104.09,0,0,0-4.9-11.43Z"/><path class="cls-12" d="M349.45,458.26c-1.86.52-4.63,1.28-8,2.13-10,2.52-15,3.78-18.45,3.91-7.83.31-14.59-1.69-19.92-3.26-2.26-.67-4.11-1.32-5.39-1.8.05-21.44.95-39.51,2-53.55.72-10,1.8-22.1,9.31-25.8,4.54-2.24,11.51-1.43,12.57-1.31,4.33.51,5.79,1.69,11.92,3.27A81.31,81.31,0,0,0,345.7,384a90.81,90.81,0,0,0,22.2-.32l3.27-10.94,13.06,1.3c-.5,5-1.14,9.25-1.74,12.62a13.71,13.71,0,0,1-2.51,6.65,11.84,11.84,0,0,1-4.08,3.26c-4.17,2.16-13.23,7.4-25.47,14.54-.55,2.25-1.05,4.59-1.47,7A111.51,111.51,0,0,0,349.45,458.26Z"/><rect class="cls-26" x="578.51" y="193.89" width="40.67" height="148.12"/><rect class="cls-27" x="578.51" y="342.01" width="40.67" height="64.86"/><polygon class="cls-28" points="660.8 382.14 619.18 406.87 619.18 342.01 660.8 312.94 660.8 382.14"/><rect class="cls-29" x="578.51" y="406.76" width="40.67" height="24.25"/><polygon class="cls-30" points="660.8 431.02 619.18 431.02 619.18 406.76 660.8 382.14 660.8 431.02"/><rect class="cls-26" x="660.8" y="193.89" width="40.67" height="119.05"/><rect class="cls-27" x="660.8" y="312.94" width="40.67" height="69.19"/><polygon class="cls-28" points="743.1 431.02 701.48 382.14 701.48 312.94 743.1 386.76 743.1 431.02"/><rect class="cls-29" x="660.8" y="382.14" width="40.67" height="48.88"/><polygon class="cls-30" points="743.1 307.51 701.48 431.02 701.48 382.14 743.1 193.89 743.1 307.51"/><rect class="cls-26" x="743.1" y="307.51" width="40.67" height="79.25"/><polygon class="cls-31" points="825.39 332.76 783.77 386.76 783.77 307.51 825.39 193.89 825.39 332.76"/><rect class="cls-27" x="743.1" y="386.76" width="40.67" height="44.26"/><polygon class="cls-28" points="825.39 431.02 783.77 431.02 783.77 386.76 825.39 406.87 825.39 431.02"/><rect class="cls-29" x="743.1" y="193.89" width="40.67" height="113.61"/><polygon class="cls-30" points="825.39 332.76 783.77 193.89 783.77 307.51 825.39 406.87 825.39 332.76"/><rect class="cls-26" x="825.39" y="193.89" width="40.67" height="138.87"/><polygon class="cls-31" points="907.68 368.26 866.06 332.76 866.06 193.89 907.68 193.89 907.68 368.26"/><rect class="cls-27" x="825.39" y="406.87" width="40.67" height="24.15"/><polygon class="cls-28" points="907.68 413.84 866.06 406.87 866.06 431.02 907.68 431.02 907.68 413.84"/><rect class="cls-29" x="825.39" y="332.76" width="40.67" height="74.11"/><polygon class="cls-30" points="907.68 371.6 866.06 332.76 866.06 406.87 907.68 413.84 907.68 371.6"/><rect class="cls-26" x="907.68" y="193.89" width="40.67" height="174.37"/><rect class="cls-27" x="907.68" y="413.84" width="40.67" height="17.17"/><rect class="cls-29" x="907.68" y="368.26" width="40.67" height="45.58"/><polygon class="cls-31" points="660.8 312.94 619.18 342.01 619.18 193.89 660.8 193.89 660.8 312.94"/><polygon class="cls-31" points="743.1 386.76 701.48 312.94 701.48 193.89 743.1 307.51 743.1 386.76"/><g class="cls-7"><rect class="cls-32" x="282.57" y="26.87" width="208.45" height="141.8" rx="14.44"/></g><rect class="cls-33" x="267.43" y="14.2" width="208.45" height="141.8" rx="14.44"/><circle class="cls-3" cx="362.21" cy="42.61" r="4.62"/><circle class="cls-3" cx="312.17" cy="79.76" r="4.62"/><circle class="cls-3" cx="362.21" cy="79.76" r="4.62"/><circle class="cls-3" cx="412.25" cy="79.76" r="4.62"/><line class="cls-34" x1="362.21" y1="42.61" x2="362.21" y2="79.76"/><polyline class="cls-34" points="312.17 79.76 312.17 61.76 412.25 61.76 412.25 79.76"/><circle class="cls-3" cx="293.95" cy="116.92" r="4.62"/><circle class="cls-3" cx="312.17" cy="116.92" r="4.62"/><circle class="cls-3" cx="330.39" cy="116.92" r="4.62"/><line class="cls-34" x1="312.17" y1="79.76" x2="312.17" y2="116.92"/><polyline class="cls-34" points="293.95 116.92 293.95 98.92 330.39 98.92 330.39 116.92"/><circle class="cls-3" cx="343.99" cy="116.92" r="4.62"/><circle class="cls-3" cx="362.21" cy="116.92" r="4.62"/><circle class="cls-3" cx="380.43" cy="116.92" r="4.62"/><line class="cls-34" x1="362.21" y1="79.76" x2="362.21" y2="116.92"/><polyline class="cls-34" points="343.99 116.92 343.99 98.92 380.43 98.92 380.43 116.92"/><circle class="cls-3" cx="394.03" cy="116.92" r="4.62"/><circle class="cls-3" cx="412.25" cy="116.92" r="4.62"/><circle class="cls-3" cx="430.47" cy="116.92" r="4.62"/><line class="cls-34" x1="412.25" y1="79.76" x2="412.25" y2="116.92"/><polyline class="cls-34" points="394.03 116.92 394.03 98.92 430.47 98.92 430.47 116.92"/><g class="cls-7"><path class="cls-35" d="M854.31,610.61a90.45,90.45,0,0,1,8.81-29.07c5.07-10.11,11.3-22.51,20-22.24,5.61.18,11.54,5.55,12.34,11.23.74,5.31-3.15,9.71-17,22.46-6.42,5.93-15,13.72-25.54,22.68Z"/><path class="cls-36" d="M853,615.67a128.43,128.43,0,0,0-29.73-34.13c-15.48-12.31-28.35-16.25-31.92-29.72-1.62-6.12-1.7-15.68,4-20,7.1-5.45,19,.53,20.52,1.32a30.16,30.16,0,0,1,10.31,9c12.75,17.34,26.9,64.18,28.18,68.48Z"/><path class="cls-37" d="M805.25,544.28a115.14,115.14,0,0,1,21.36,20.09c10.74,13.12,17,26.89,22.9,39.85,1.76,3.88,3.13,7.13,4,9.34"/><path class="cls-37" d="M880.66,571.47c-3.73,4.85-6.76,9-9,12.06a248.43,248.43,0,0,0-16.35,26.86c-.77,1.44-1.38,2.63-1.77,3.4"/></g></svg>