<svg id="图层_1" data-name="图层 1" xmlns="http://www.w3.org/2000/svg" xmlns:xlink="http://www.w3.org/1999/xlink" viewBox="0 0 1175.45 614.75"><defs><style>.cls-1,.cls-18,.cls-3,.cls-34,.cls-5{fill:none;}.cls-2{fill:#80bfdc;}.cls-3{stroke:#80bfdc;}.cls-17,.cls-18,.cls-24,.cls-26,.cls-3,.cls-31,.cls-33,.cls-34,.cls-5{stroke-miterlimit:10;}.cls-4{fill:#337895;}.cls-5{stroke:#337895;}.cls-6{fill:#61b0de;}.cls-7{fill:#beceea;}.cls-8{fill:#a5a5a5;opacity:0.28;}.cls-9{clip-path:url(#clip-path);}.cls-10{fill:url(#未命名的渐变_52);}.cls-11{fill:url(#未命名的渐变_9);}.cls-12{fill:url(#未命名的渐变_35);}.cls-13{fill:#3c65af;}.cls-14{fill:#fff;}.cls-15{fill:#9bbce3;}.cls-16{fill:#e6984a;}.cls-17,.cls-33{fill:#bee4f3;}.cls-17,.cls-18,.cls-24,.cls-26,.cls-31,.cls-34{stroke:#fff;}.cls-19{fill:#f7c2ae;}.cls-20{fill:#2d2717;}.cls-21{fill:#4d4350;}.cls-22{fill:#56495d;}.cls-23{fill:#ecab5d;}.cls-24{fill:#ebab58;}.cls-25{fill:#4c5793;}.cls-26,.cls-31{fill:#47b3e6;}.cls-27{fill:#113793;}.cls-28{fill:#7179b9;}.cls-29{fill:#83cdd7;}.cls-30{fill:#586c8a;opacity:0.52;}.cls-31{stroke-width:2px;}.cls-32{fill:#d1e1e8;opacity:0.5;}.cls-33{stroke:#3c65af;}.cls-33,.cls-34{stroke-linecap:round;}.cls-35{fill:#d0eaf1;}.cls-36{fill:#d8eef4;}</style><clipPath id="clip-path"><path class="cls-1" d="M281.19,573.5c-33,9.23-76,28.18-119,9-27.81-12.41-42.51-34.92-47-42-32.19-50.71-12-108.6-10-114,11.53-31.43,26-31.31,33-61,3.37-14.14,3.43-28.2-9-78-20.12-80.69-32.25-91.79-31-127,.44-12.44,1.64-46.08,21-73C160.58,29.85,260.89,36.6,342.53,42.1c105.29,7.09,110.94,28.94,204,28,28.83-.29,71.23-5.08,156-14.67C795.69,44.91,831.18,38.06,870.87,60c34.82,19.27,52.55,49.48,59.73,62.07,36.13,63.29,2.28,95.23,28.67,176.35,21.25,65.31,51.14,69,55,124,.66,9.35,4.87,69.16-31,106-39.88,41-95.18,18.55-207.22,22.91-145,5.65-132.48,46.32-255.73,44.54C389.94,594.07,370.7,548.48,281.19,573.5Z"/></clipPath><linearGradient id="未命名的渐变_52" x1="119.71" y1="56.44" x2="491.64" y2="173.52" gradientUnits="userSpaceOnUse"><stop offset="0" stop-color="#64c3ce"/><stop offset="1" stop-color="#5ba4b2"/></linearGradient><linearGradient id="未命名的渐变_9" x1="402.07" y1="148.48" x2="816.62" y2="909.16" gradientUnits="userSpaceOnUse"><stop offset="0.25" stop-color="#64c3ce"/><stop offset="0.47" stop-color="#369ac3"/><stop offset="0.72" stop-color="#1d5ea4"/></linearGradient><linearGradient id="未命名的渐变_35" x1="47.99" y1="153.29" x2="1115.8" y2="343.5" gradientUnits="userSpaceOnUse"><stop offset="0.21" stop-color="#5ab4c8"/><stop offset="0.54" stop-color="#369ac3"/><stop offset="1" stop-color="#347daa"/></linearGradient></defs><title>feature2</title><path class="cls-2" d="M1015.51,455.51c3.11-.76,7.54-1.74,12.94-2.63,7.89-1.3,9.47-1,10.73-.21,4.46,2.86,4.34,12.14,1,13.57-2.32,1-5.06-2.29-14-6.54A81.73,81.73,0,0,0,1015.51,455.51Z"/><path class="cls-2" d="M1020.27,432.71c3.12-.75,7.54-1.73,13-2.62,7.88-1.3,9.47-1,10.72-.22,4.46,2.87,4.35,12.14,1,13.58-2.32,1-5.06-2.29-14-6.55A82.08,82.08,0,0,0,1020.27,432.71Z"/><path class="cls-2" d="M1022.27,411.43c3-1.06,7.24-2.48,12.48-3.9,7.64-2.07,9.24-1.95,10.58-1.27,4.74,2.43,5.7,11.72,2.58,13.48-2.18,1.23-5.27-1.79-14.61-5.17A82,82,0,0,0,1022.27,411.43Z"/><path class="cls-2" d="M1021.59,391.93c2.67-1.59,6.49-3.78,11.25-6.15,7-3.45,8.52-3.63,10-3.19,5.11,1.54,8.07,10.57,5.43,12.89-1.85,1.62-5.5-.82-15.28-2.45A82.56,82.56,0,0,0,1021.59,391.93Z"/><path class="cls-2" d="M1021.14,371c2-2.27,4.89-5.41,8.62-9,5.43-5.22,6.85-5.82,8.35-5.78,5.3.13,11,8.12,9.2,11.09-1.21,2.07-5.42.68-15.13,1.71A78,78,0,0,0,1021.14,371Z"/><path class="cls-2" d="M1014.65,351c2-2.27,4.89-5.42,8.62-9,5.43-5.23,6.85-5.82,8.34-5.78,5.31.12,11,8.12,9.21,11.09-1.22,2.07-5.42.68-15.13,1.71A76.58,76.58,0,0,0,1014.65,351Z"/><path class="cls-2" d="M1015.94,346.71c-.41-3-1.07-7.22-2.18-12.27-1.63-7.36-2.48-8.64-3.75-9.44-4.48-2.83-13.61.69-13.81,4.13-.13,2.4,4.14,3.57,11.65,9.81A77,77,0,0,1,1015.94,346.71Z"/><path class="cls-2" d="M1016.91,350.45c-2.4-.66-5.8-1.52-9.88-2.3-6-1.15-7-.93-7.75-.24-2.56,2.44-.4,10.38,2.32,11.63,1.89.87,3.12-1.94,8.59-5.55A39.12,39.12,0,0,1,1016.91,350.45Z"/><path class="cls-2" d="M1022,370.38c-2.72-.61-6.58-1.4-11.23-2.09-6.77-1-8-.72-8.88,0-3.06,2.71-1,11.13,2.08,12.36,2.13.86,3.68-2.2,10.14-6.26A51.33,51.33,0,0,1,1022,370.38Z"/><path class="cls-2" d="M1022.94,391.76c-2.45-1.34-5.93-3.15-10.21-5.08-6.25-2.83-7.55-2.91-8.64-2.43-3.86,1.68-4.61,10.14-2.05,12.14,1.78,1.4,4.29-1,11.9-3A54.3,54.3,0,0,1,1022.94,391.76Z"/><path class="cls-2" d="M1022.43,411c-2.67-1.54-6.49-3.63-11.22-5.92-6.9-3.34-8.4-3.53-9.72-3.16-4.7,1.33-6.66,9.65-3.94,11.85,1.9,1.54,5.12-.65,14.22-2A76.78,76.78,0,0,1,1022.43,411Z"/><path class="cls-2" d="M1020,432.42c-2.67-1.53-6.48-3.63-11.21-5.91-6.9-3.34-8.4-3.54-9.73-3.16-4.7,1.33-6.65,9.64-3.93,11.85,1.89,1.53,5.12-.65,14.22-2A75.45,75.45,0,0,1,1020,432.42Z"/><path class="cls-2" d="M1015.85,455.22c-2.59-1.64-6.31-3.89-10.93-6.37-6.74-3.62-8.23-3.87-9.58-3.56-4.77,1.13-7.15,9.33-4.54,11.64,1.82,1.61,5.16-.43,14.34-1.37A76.56,76.56,0,0,1,1015.85,455.22Z"/><path class="cls-3" d="M1010.53,474.77a294.49,294.49,0,0,0,12.05-64.25c1.58-21.87-.09-34.08-.91-39.26a152,152,0,0,0-11.15-37.38"/><path class="cls-4" d="M1017.72,460.22c-2.53-3.2-6.2-7.64-10.91-12.73-6.87-7.41-8.65-8.3-10.52-8.33-6.62-.12-13.54,10.45-11.3,14.59,1.55,2.88,6.78,1.22,18.92,3.16A93,93,0,0,1,1017.72,460.22Z"/><path class="cls-4" d="M1030.26,430.86c-2.53-3.2-6.2-7.65-10.91-12.73-6.87-7.42-8.66-8.3-10.52-8.34-6.62-.12-13.54,10.45-11.31,14.59,1.56,2.89,6.79,1.23,18.93,3.17A92,92,0,0,1,1030.26,430.86Z"/><path class="cls-4" d="M1044.42,405.29c-2.18-3.45-5.35-8.27-9.49-13.83-6-8.1-7.72-9.18-9.57-9.41-6.57-.83-14.58,8.95-12.8,13.3,1.24,3,6.61,1.94,18.48,5.17A91.82,91.82,0,0,1,1044.42,405.29Z"/><path class="cls-4" d="M1059.87,383.75c-1.44-3.81-3.59-9.16-6.54-15.43-4.31-9.15-5.74-10.54-7.51-11.14-6.27-2.11-16.06,5.86-15.19,10.49.61,3.22,6.1,3.22,17.08,8.74A92.87,92.87,0,0,1,1059.87,383.75Z"/><path class="cls-4" d="M1076.19,360.44c-.27-4.07-.77-9.82-1.76-16.68-1.45-10-2.42-11.74-3.94-12.83-5.38-3.86-17.07.92-17.58,5.6-.36,3.25,4.89,4.85,13.78,13.34A92.73,92.73,0,0,1,1076.19,360.44Z"/><path class="cls-4" d="M1097.86,342.67c-.27-4.07-.77-9.81-1.76-16.67-1.45-10-2.42-11.75-3.94-12.84-5.38-3.85-17.07.92-17.58,5.6-.36,3.26,4.89,4.86,13.78,13.35A92.82,92.82,0,0,1,1097.86,342.67Z"/><path class="cls-4" d="M1099.8,336.88c2.68-3.08,6.54-7.35,11.48-12.22,7.2-7.1,9-7.9,10.89-7.85,6.61.18,13,11.05,10.63,15.08-1.68,2.81-6.83.92-19,2.31A92.37,92.37,0,0,0,1099.8,336.88Z"/><path class="cls-4" d="M1096,340.38c2.89,1.07,6.93,2.66,11.59,4.85,6.81,3.19,7.71,4.26,7.9,5.58.7,4.68-7.48,12-11.13,11.4-2.54-.45-1.63-4.55-4.35-12.75A51.55,51.55,0,0,0,1096,340.38Z"/><path class="cls-4" d="M1075.86,359.11c3.18,1.37,7.62,3.38,12.77,6.11,7.52,4,8.54,5.24,8.82,6.75,1,5.36-7.47,13.31-11.45,12.4-2.77-.64-2-5.26-5.35-14.73A67.33,67.33,0,0,0,1075.86,359.11Z"/><path class="cls-4" d="M1058.67,382.54c3.44.33,8.28.91,14,1.95,8.36,1.52,9.72,2.41,10.45,3.77,2.57,4.81-3.1,14.95-7.17,15.28-2.83.24-3.49-4.4-9.55-12.42A66.74,66.74,0,0,0,1058.67,382.54Z"/><path class="cls-4" d="M1044.61,404.63c3.83.29,9.22.79,15.66,1.77,9.41,1.43,11,2.35,12.09,3.77,3.67,5.05-.69,15.92-5.07,16.36-3,.31-4.61-4.6-12.66-13A89.76,89.76,0,0,0,1044.61,404.63Z"/><path class="cls-4" d="M1030.75,430.73c3.82.29,9.21.79,15.66,1.77,9.4,1.43,11,2.34,12.08,3.77,3.68,5.05-.68,15.92-5.06,16.36-3,.31-4.61-4.6-12.67-13A89.85,89.85,0,0,0,1030.75,430.73Z"/><path class="cls-4" d="M1017.59,459.64c3.83.11,9.24.36,15.73,1,9.46,1,11.14,1.83,12.24,3.21,3.91,4.87.06,15.93-4.3,16.58-3,.45-4.82-4.38-13.25-12.37A89.36,89.36,0,0,0,1017.59,459.64Z"/><path class="cls-5" d="M1008.07,485.76A445.33,445.33,0,0,1,1044.79,404c15-25.93,25.94-38.48,30.68-43.7a211.61,211.61,0,0,1,39.46-33.87"/><path class="cls-6" d="M977.72,527.46l2,4.57a239.76,239.76,0,0,1,41.68-34.4c15.9-10.34,36.69-23.86,66.72-29.51,30.94-5.81,57.49-.59,74.33,4.55-6.2-5.89-15.08-14.06-26.17-23.35-27.43-23-34.45-24.4-39.84-24-12,.82-11.92,10.19-27,13.44-18.7,4-29.79-8.59-37.72-1.55-7.38,6.56-1.28,18.57-10.08,25.72-7.11,5.79-13.92.24-20.28,6-7.22,6.56.13,15-7.43,28-4.5,7.78-9.43,8.85-13.4,18.62A41.47,41.47,0,0,0,977.72,527.46Z"/><path class="cls-7" d="M118.64,294c4.25,0,8.49.09,12.73,0,2.07-.06,2.79.54,2.94,2.71.48,7,2.87,13.08,8.8,17.29,4.35,3.1,9.32,4.14,14.57,4a45.72,45.72,0,0,0,10.78-1.63,1.71,1.71,0,0,1,2.22.89q5.79,9.93,11.65,19.83c.72,1.21.3,1.84-.69,2.56a38.71,38.71,0,0,0-7.94,7.77c-4.7,6.13-4.51,12.5-1.28,19.08a61.34,61.34,0,0,0,9.16,13.69,2.75,2.75,0,0,1,.34,3.89q-5.85,9.24-11.42,18.66c-1,1.7-1.91,1.8-3.57,1.08-7.57-3.25-15.16-3.92-22.39.78a27.89,27.89,0,0,0-12.36,18.16c-.51,2.46-1.53,3-3.86,3-6.69-.14-13.4-.15-20.09,0-2.37.05-3-.81-3.22-3-.57-7.08-3.43-13.05-9.23-17.36a19.26,19.26,0,0,0-10.54-3.83,41.05,41.05,0,0,0-15.65,1.77,1.92,1.92,0,0,1-2.68-1.1c-3.4-6.36-6.87-12.69-10.34-19a1.74,1.74,0,0,1,.39-2.5c6-5.54,9.9-12.29,10.74-20.49.65-6.4-1.68-12-5.78-16.83a28.92,28.92,0,0,0-4.82-4.63,1.6,1.6,0,0,1-.45-2.45c3.62-6.51,7.22-13,10.74-19.57.73-1.37,1.56-1.24,2.74-.83,6,2.09,12.13,2.91,18.41,1.39,9.94-2.4,15.81-10.32,15-20.55-.2-2.37.57-2.76,2.63-2.71C110.31,294,114.48,294,118.64,294Zm.77,101.5a35.26,35.26,0,1,0-.2-70.52c-19.24-.07-35.43,16.16-35.11,35.48C84.41,380,99.88,395.53,119.41,395.45Z"/><ellipse class="cls-8" cx="910.62" cy="580.15" rx="15.4" ry="5.68"/><g class="cls-9"><path class="cls-10" d="M303.07,205.26c144.58-6.11,169.16,24.54,216.7-14.59,55.79-45.92,54.35-114.85,86.7-183.47l-2.63.4C528.55,19.25,490.9,25.07,465.3,25.43,382.63,26.57,377.61,0,284.12-8.6c-72.5-6.67-161.57-14.88-198.35,55.09-17.2,32.72-18.26,73.59-18.65,88.7-.93,35.95,6.52,51.22,19.52,113.31C130.81,213.36,195.34,209.81,303.07,205.26Z"/><path class="cls-11" d="M79.17,545.49c-2.36-16.67,55-60,169.73-146.78,134.8-101.91,165.21-109,192-105.49,77.6,10.21,95,88.5,153.16,80.27,49.77-7.05,60.61-67.68,118.65-128.43,39.16-41,105.28-87.75,222.2-105.49,140,214.29,102.94,324.43,86.29,360.05C893.14,773.59,95,657.15,79.17,545.49Z"/><path class="cls-12" d="M94.65,532.87c-14.83-20-45.36-66.79-51.77-134.16-1.9-20-10.49-110.29,41-167.41,40.33-44.74,101.5-47.64,222.2-51.6,131.69-4.32,154.09,17.38,197.39-10.32C568.32,127.9,548.25,59.9,615.64-.32c52.94-47.32,115.59-50.28,192-53.89,49.54-2.35,303.16-15.16,333.3,81.41,29.21,93.58-163.48,251.31-308.76,328.23-41.32,21.88-98.89,47.85-259.68,88.57C456.79,473.31,294.58,508.49,94.65,532.87Z"/></g><rect class="cls-13" x="192.45" y="95.27" width="667.59" height="417.16" rx="11.89"/><rect class="cls-14" x="196.94" y="125.78" width="658.6" height="383.1" rx="11.89"/><rect class="cls-13" x="192.45" y="95.27" width="667.59" height="53.92" rx="11.89"/><circle class="cls-14" cx="235.01" cy="122.23" r="6.74"/><circle class="cls-14" cx="264.1" cy="122.23" r="6.74"/><circle class="cls-14" cx="293.19" cy="122.23" r="6.74"/><rect class="cls-15" x="212.65" y="163.56" width="180.39" height="324.57" rx="7.77"/><rect class="cls-15" x="408.99" y="163.56" width="425.69" height="324.57" rx="7.77"/><rect class="cls-14" x="229.01" y="183.6" width="107.13" height="12.42"/><rect class="cls-14" x="229.01" y="203.71" width="91.96" height="12.42"/><rect class="cls-14" x="229.01" y="223.81" width="78.39" height="12.42"/><rect class="cls-14" x="229.01" y="243.92" width="107.13" height="12.42"/><rect class="cls-14" x="229.01" y="264.03" width="90.37" height="12.42"/><rect class="cls-14" x="229.01" y="284.14" width="106.06" height="12.42"/><rect class="cls-14" x="229.01" y="304.25" width="123.89" height="12.42"/><rect class="cls-14" x="229.01" y="324.36" width="123.89" height="12.42"/><rect class="cls-14" x="229.01" y="344.46" width="113.51" height="12.42"/><rect class="cls-14" x="229.01" y="364.57" width="98.88" height="12.42"/><rect class="cls-14" x="229.01" y="384.68" width="82.65" height="12.42"/><rect class="cls-14" x="229.01" y="404.79" width="63.23" height="12.42"/><rect class="cls-14" x="229.01" y="424.9" width="63.23" height="12.42"/><path class="cls-16" d="M386.64,351.74c3.28,2.18,7.78,5,13.32,8a119.9,119.9,0,0,0,21.2,9.54,101.15,101.15,0,0,0,20.51,4.34c-1.29,2.49-2.57,5-3.86,7.49a92,92,0,0,1-23.77.77c-6.35-.64-11.84-1.23-18.3-4.28A43.69,43.69,0,0,1,382,367.41Q384.35,359.58,386.64,351.74Z"/><path class="cls-17" d="M544.82,360.12,413.71,338.49a133.77,133.77,0,0,0,22.45,98.08Z"/><line class="cls-18" x1="411.99" y1="353.54" x2="544.41" y2="360.4"/><line class="cls-18" x1="430.16" y1="427.21" x2="544.41" y2="360.4"/><path class="cls-17" d="M444.59,343.41a101.7,101.7,0,0,0,17.19,75.06l83.3-58.55-.47-.15Z"/><path class="cls-17" d="M544.61,359.77,448.24,328.4a102.4,102.4,0,0,0-3.65,15Z"/><path class="cls-19" d="M433.52,405.7a9.22,9.22,0,0,0,4.05-.17c2-.56,2.71-1.57,4.87-2.56a13.83,13.83,0,0,1,5-1.24c2.21-.06,7,.56,8.35,3.89,1.22,3-1.05,7-3.8,8.67-3.18,1.93-7.14.88-13.55-.82a52.4,52.4,0,0,1-5.38-1.74Z"/><path class="cls-20" d="M327.51,540.37a5.81,5.81,0,0,0-1.53,4.16c.15,1.53,1.09,2.47,3.2,4.44,4.38,4.1,6.6,6.16,7.93,6.6a10.23,10.23,0,0,0,7.38-.43c1.31-.67,1.38-1.16,1.39-1.29.11-1.27-3-1.63-5.85-4-3.36-2.82-2.57-5.35-5.56-7.6A10.54,10.54,0,0,0,327.51,540.37Z"/><path class="cls-20" d="M376.71,549a11.72,11.72,0,0,0,0,4.94,8.9,8.9,0,0,0,1.2,3.14c1.78,2.52,4.68.62,12.66,1.35,2.57.23,4.84.66,7.33-.75.45-.25,2.26-1.28,2.13-2.24-.16-1.25-3.33-.8-7.73-2.55s-4.73-3.47-8.13-4.34A13,13,0,0,0,376.71,549Z"/><path class="cls-21" d="M358.57,413.87a346.21,346.21,0,0,1,12.93,58.51c2,15.33,2.84,30.19,3.73,45.8.75,13.21,1.12,24.28,1.31,32.22l8.11.66c.92-9.43,2.14-22.85,3.29-39,1.57-22.13,2.46-34.63,2.41-50.84A434.12,434.12,0,0,0,387.72,415Z"/><path class="cls-22" d="M349.37,416.28a29.78,29.78,0,0,0-3.29,10.3c-1.92,15.85,11,24.08,12.06,41,.29,4.59-1.27,9.78-4.39,20.16-5.62,18.75-14.44,33.43-21.69,45.37-2.16,3.55-4,6.42-5.26,8.32l6.57,2c3.26-3.54,7.87-8.69,13.15-15.13,17.82-21.71,26.72-32.57,30.68-46.23,3.26-11.25,1.16-15.16,4.6-41.86.23-1.73,1.07-8.17,2-16.88.4-3.82.7-7,.88-9Z"/><path class="cls-20" d="M395.24,305.32a12.92,12.92,0,0,0-.7-3.54c-2-5.68-7.55-8.22-9.45-9.1-5.94-2.72-14.38-3.2-20.88,1.16-4.07,2.72-5.84,6.32-7.86,10.55-5.1,10.69-2.5,15.22-6,27.41a80.56,80.56,0,0,1-9.69,20.63c-7.6,12.28-12.07,13.37-12.39,19.8-.4,8.31,6.59,15.68,12.39,19.18,2.11,1.27,11.71,7.07,18,3.29,8.39-5.08-.5-20.59,9.2-43.07,2.5-5.78,3.95-6.76,7.67-15.66,4-9.63,4.67-13.91,8.66-19.73A41.62,41.62,0,0,1,395.24,305.32Z"/><path class="cls-19" d="M393.22,303.31a4.08,4.08,0,0,0-3,.22c-2.15.93-1.86,2.76-4.11,5.26-1.85,2.06-2.82,1.68-5.34,4.28a20.59,20.59,0,0,0-2.38,2.95,7.08,7.08,0,0,0-2.41-5.69c-2.19-1.74-5.66-2-7.23-.44-1.86,1.87-.43,5.72.54,8.33a19.54,19.54,0,0,0,3.07,5.36,30.41,30.41,0,0,1-.44,14.47l8.33,3.5c-.16-2-.28-4.06-.33-6.24,0-1.71,0-3.35,0-4.93a33.9,33.9,0,0,0,3.79.93,24.37,24.37,0,0,0,5.83.48c6.94-1.12,7.9-22.23,5.66-26.47A4,4,0,0,0,393.22,303.31Z"/><path class="cls-23" d="M368.85,336.4c-3.49,1-5.67,4.31-7.73,9.21-3.92,9.36-4.4,17.26-5.26,29.09-.95,13.14-1.44,19.77-2.13,23.17a78.6,78.6,0,0,1-8.88,23.34,39.71,39.71,0,0,1,9.53-1.64c9.84-.47,14.39,3.09,24,2.79a39.32,39.32,0,0,0,11.5-2.13,61.16,61.16,0,0,1-1.84-20,49.27,49.27,0,0,0,9.24,6.07c7.71,3.89,14.63,4.77,22.85,5.75a120.08,120.08,0,0,0,15.61.82l.11-7.73A53.48,53.48,0,0,1,418,399.85c-7.22-3.62-11.88-8.09-16.49-12.49a99.15,99.15,0,0,1-10-11.18c1.64-1.7,4.22-4.92,4.44-9.21.13-2.63-.68-4.54-5.1-11.66-8.34-13.46-10.93-15.54-13.48-16.93C375.24,337.19,372.17,335.51,368.85,336.4Z"/><path class="cls-24" d="M512,189.7l111,71.43-19.8-131A133,133,0,0,0,512,189.7Z"/><line class="cls-18" x1="573.24" y1="138.52" x2="622.84" y2="261.92"/><path class="cls-24" d="M607.82,161.27a101.36,101.36,0,0,0-69.51,45.25L623,261.13Q615.42,211.2,607.82,161.27Z"/><path class="cls-24" d="M623.11,261.2l.39.25h0c0-.31.08-.62.13-.94Z"/><path class="cls-24" d="M527.08,230.07l96.41,31.38h0l-85.19-54.93A100.81,100.81,0,0,0,527.08,230.07Z"/><path class="cls-24" d="M637.29,161a102.76,102.76,0,0,0-13.78-1,101.49,101.49,0,0,0-15.69,1.22q7.6,49.93,15.19,99.86l.1.07.53-.69Z"/><path class="cls-25" d="M599,439.39A69.37,69.37,0,0,0,616.85,445a70.08,70.08,0,0,0,28.13-.94l7.88-8.94a52.15,52.15,0,0,1-53-17.3Q599.43,428.62,599,439.39Z"/><path class="cls-25" d="M869.55,386.52a65.75,65.75,0,0,1-22.72-6.47c-10.8-5.35-17.36-12.42-22.35-17.89A96.78,96.78,0,0,1,811.41,344c.24-2.47.47-4.94.71-7.41a73.77,73.77,0,0,0,19.06,17.06A77.66,77.66,0,0,0,863,364.52a85.69,85.69,0,0,0,14,.7,14.86,14.86,0,0,1,.35,15.42A14.17,14.17,0,0,1,869.55,386.52Z"/><path class="cls-26" d="M709.78,262.5q-9.1,66.33-18.23,132.65l67.21,115.49a133.6,133.6,0,0,0-49-248.14Z"/><line class="cls-18" x1="691.05" y1="394.58" x2="796.49" y2="478.15"/><line class="cls-18" x1="690.88" y1="395.38" x2="763.91" y2="282.3"/><line class="cls-18" x1="798.09" y1="313.69" x2="690.88" y2="395.38"/><path class="cls-26" d="M705.39,294q-6.92,50.44-13.84,100.89l-.27.19L742.61,483a101.83,101.83,0,0,0-37.22-189Z"/><path class="cls-26" d="M690.88,395.38l-82.63,58.08a102.07,102.07,0,0,0,52,38.38Z"/><path class="cls-26" d="M690.88,395.38l-30.63,96.46A102,102,0,0,0,742.61,483L691.28,395.1Z"/><path class="cls-19" d="M615.91,386a25.28,25.28,0,0,1,3.06,9.77c.12,1.21,1.33,13.58-5.41,16.71-.78.36-3.88,1.63-8.95-.71a20.65,20.65,0,0,0-1.88,3.88,21.45,21.45,0,0,0-.7,11.54l-9.18-11.65a10.69,10.69,0,0,0,.7-13.18c-.32-.31-5.7-5.48-4.23-11.3,1.62-6.45,10.21-7.9,12.23-8.24A20.67,20.67,0,0,1,615.91,386Z"/><path class="cls-20" d="M619.76,383.57a8.42,8.42,0,0,1-1.89,5.49c-2.86,3.94-8.76,5.68-12.39,3.92-1.59-.77-2.25-2-3.45-1.73-1.5.29-2.34,2.49-2.83,4.4-.28-1.67-1.42-2.81-2.51-2.83-1.26,0-2.26,1.46-2.51,2.67-.52,2.46,2.07,3.64,1.88,6.28a5,5,0,0,1-3.14,4.23c-3.51,1-9.88-5-10.67-11.61-.84-7,5-12.51,8-15.38,2.49-2.34,5.63-5.31,10.51-6.11C609.28,371.49,619.27,377.3,619.76,383.57Z"/><path class="cls-19" d="M624.8,483.28c.79.58,2,1.48,3.41,2.65,2.93,2.43,3.34,3.17,4.82,3.88.56.27,3.59,1.72,6.36.47,3.66-1.65,5.16-7.29,3.47-9.29-1.33-1.58-4-.17-11.36-.42a56.18,56.18,0,0,1-6.35-.58C625,481.08,624.91,482.18,624.8,483.28Z"/><path class="cls-20" d="M606.61,542a19.88,19.88,0,0,0-1.11,7.06,19.62,19.62,0,0,0,.64,4.48c3,.4,7.44.93,12.89,1.35,13.51,1,15.57,0,16.24-1.35.8-1.59-.21-3.95-1.47-5.24-1.44-1.47-2.95-1.27-11.36-2.12-5.54-.56-6.7-.82-7.94-1.82s-1.93-2.38-3.65-2.89A6.17,6.17,0,0,0,606.61,542Z"/><path class="cls-20" d="M526.65,539.3a5,5,0,0,0-6.24.41,4.82,4.82,0,0,0-.76,5.29c.76,1.59,2,1.4,4.35,3.59.83.76,3.46,3.18,2.89,4.53-.2.47-.78.83-3.59,1.06-5,.42-7.58.64-9.71-.94-1.73-1.27-2.36-3-3-4.76-1.42-3.89-.71-7.18.06-10.71.69-3.21,1.45-4.09,2.11-4.59,1.18-.88,2.47-.89,4.18-.89,2.68,0,7.34,0,9.12,3.18A5.91,5.91,0,0,1,526.65,539.3Z"/><path class="cls-27" d="M582.61,487.28a72.54,72.54,0,0,1,21.18.83c8.13,1.53,15.21,2.87,19.3,8.7,1,1.5,2.75,4.5,3,10.58.72,16.32-9.91,30.8-14.43,36.38l-6.24-.71c1.73-9.66,2.65-17.77,3.18-23.89.36-4.27.53-7.49-1.53-10-1.88-2.28-4.7-2.87-12.71-3.65-4.51-.43-10.37-.9-17.3-1.17A97.11,97.11,0,0,1,575,526.7c-1.82,8.44-3.81,12-5.3,14.13-2,2.87-5,7.35-10.24,8.82-4.23,1.2-7.35-.47-16.12-3.65-3.72-1.34-10.45-3.78-19.65-7.06l.12-6a111.3,111.3,0,0,1,17.66.66c6.67.79,10.73,1.9,13.18-.47,1.33-1.29,1.73-3.15,1.53-8.36a121.46,121.46,0,0,0-3.66-24.31c-1.6-5.86-2.79-8.81-1.65-12.94a16.15,16.15,0,0,1,3.89-6.71Z"/><path class="cls-28" d="M591.67,411.81c5.75-.13,10.58,5.45,12.71,9.73,1.14,2.29,2.06,5.34,1.57,14.75a126.83,126.83,0,0,1-3,21.34,46.3,46.3,0,0,0,5.49,8.16,48,48,0,0,0,19.3,13.65q-.48,2.82-.94,5.64a67.81,67.81,0,0,1-33.9-12.86,40.08,40.08,0,0,0-7.68,17.1c-1.1.17-2.74.46-4.71.94-5.86,1.45-6.49,2.68-9.26,3.14-8.13,1.34-15.54-7.17-15.85-7.53a21.44,21.44,0,0,1-3.29-5.34c4.65-9,7.81-16.51,9.73-21.34,6.34-15.95,8.86-27.36,18.83-39.75C584.57,414.62,587.76,411.91,591.67,411.81Z"/><path class="cls-19" d="M868.49,323.8A83.35,83.35,0,0,0,864,336.51c-2.31,8.77-1.35,11-.83,12a10.5,10.5,0,0,0,7.53,5.18,10.08,10.08,0,0,0,4-.23,17.92,17.92,0,0,1,.24,2.35,19.25,19.25,0,0,1-.82,6.24l7.53-3.18a8.06,8.06,0,0,1,.12-5.41,8.52,8.52,0,0,1,5.41-4.83A14.52,14.52,0,0,0,896,335.92c.13-8.22-7.77-12.49-8.83-13.06C878.35,318.08,869.05,323.46,868.49,323.8Z"/><path class="cls-20" d="M872,311.44c-2.2.9-7.58,3.08-8.24,7.46-.61,4.06,3.06,8.62,7.06,10.12,4.28,1.6,6.74-1.1,12.55,1,1.77.64,4.26,1.59,4.71,3.68.51,2.38-1.95,4.58-2.27,4.87a4.8,4.8,0,0,1,3.53-1,3.18,3.18,0,0,1,2.12.94c1.25,1.56.09,5.2-2,6.28-1.54.77-2.65-.24-3.93.7s-1.71,2.76-1.1,3.77c1,1.66,5.39,1.21,8.24-.08,6.08-2.74,8.57-10.76,8.87-16.24.09-1.71.47-12.28-8.16-18.91C886.26,308.61,877.56,309.18,872,311.44Z"/><path class="cls-20" d="M914.27,568.58a5.16,5.16,0,0,1,1.29,3,5.8,5.8,0,0,1-1.76,4.12c-1.33,1.49-2.34,1.6-5.95,3.29-4.57,2.15-4.71,2.8-6.82,3.12-.45.07-4.94.69-5.95-1.29-.84-1.67,1.23-4.23,1.47-4.53,2.82-3.41,5.9-1.65,9.89-5.24,1.25-1.13,1.88-2.14,3.53-2.65A7,7,0,0,1,914.27,568.58Z"/><path class="cls-19" d="M799.17,378.21a13.12,13.12,0,0,0-3.92.08c-3.6.61-4.69,2.37-7.14,3.13-3.94,1.24-8.52-1-11.14-3.37-.69-.63-5.69-5.33-4.24-11.14.23-.91,1-4.08,3.61-5.26s5.37.34,16.16,6.75c2.21,1.31,5.06,3,8.4,5Z"/><path class="cls-27" d="M909.56,445.21c.85,19.47,1.31,35.42,1.57,46.6.6,25.88.6,45.14,3.76,73.43.19,1.71.36,3.12.47,4.08l-6.74.47q-4.95-14.68-9.42-30.75a590,590,0,0,1-15.37-73.59,422,422,0,0,1-6.59,60.88c-1.69,9.21-3.61,18-5.7,26.33l-5.11-.23-4.44-.19c-.45-12.67-.58-23.21-.6-30.77-.13-37.65,2-53.81,3-60.1,1-6.71,2.07-12.2,2.82-15.85Z"/><path class="cls-28" d="M889.63,356.87c-7.87-3.58-16.51,2.21-16.94,2.51-8.86,6.12-8.81,17.3-8.79,18.36a42.84,42.84,0,0,1-8.32,4.39c-9.16,3.61-17.16,3.06-22.12,2.67a56.38,56.38,0,0,1-22.28-6.43,51.55,51.55,0,0,1-10.83-8l-2.82,8.16A78.82,78.82,0,0,0,815.1,392.8a75.94,75.94,0,0,0,26.52,9.89,69.87,69.87,0,0,0,24.63-.63c-1.36,14.8-1.61,23-1.57,27.77,0,1.34.08,6.3-.15,13-.1,2.91-.23,5.27-.32,6.75a118.33,118.33,0,0,0,47.55-1.72,398.23,398.23,0,0,0-3.3-49.9s-2-15-11.14-32.8C896,362.58,893.88,358.8,889.63,356.87Z"/><path class="cls-19" d="M620.71,78a6.66,6.66,0,0,1,6,8.29l6.71-3.52A36,36,0,0,1,631,76.64a35.57,35.57,0,0,1-1.45-8.22Z"/><path class="cls-19" d="M609.73,153.87A13.11,13.11,0,0,1,607.4,156c-2.27,1.61-3.61,1.42-6.58,2.88-1.16.57-4.69,2.31-4.46,3.77.17,1.05,2.18,1.09,2.45,2.44.15.77-.39,1.31-1.19,2.58-1.21,1.89-2.52,3.94-2.07,4.76.82,1.55,9,1.05,12.61-3.7,1.46-1.92,1.36-3.47,4.08-7.78a39.75,39.75,0,0,1,2.51-3.57Z"/><path class="cls-29" d="M591,95.21h45.68a26.25,26.25,0,0,1,1.56,8.47c.14,8.79-4.4,15.24-9.78,22.59-7.94,10.83-15.09,20-21.09,27.48l7,6.4a228.15,228.15,0,0,0,26.73-25c15.6-17.15,17.63-24.72,18.32-29.12.66-4.14,2.31-14.57-4.52-22.08a22.93,22.93,0,0,0-18.07-7.09,20.86,20.86,0,0,0-4.89.94,8.16,8.16,0,0,1-1.88,2.07,8.65,8.65,0,0,1-4.9,1.76c-1.53-.17-3.69-.35-6.27-.38-3.86,0-9.52-.1-14.31,1.57C597.48,85.34,593.18,91.39,591,95.21Z"/><path class="cls-20" d="M597,37.67a12.51,12.51,0,0,0-1.51,6.15A12.73,12.73,0,0,0,598,51.1a23.51,23.51,0,0,0,4.65,14.31l1.75,4.26a10.6,10.6,0,0,0,.25,5.27,10.73,10.73,0,0,0,4.4,5.65,12.27,12.27,0,0,0,7.65,1.88c7.21-.39,11.41-6.4,11.92-7.15a19.26,19.26,0,0,0,2.64-6.53c.94-3.67.88-6.61.75-11-.11-3.91-.17-5.86-.75-7.9s-1.8-6.33-5.65-9.17S617,38,615.18,38.05c-5.44.25-7.12,2.68-11.79,2.13A14.25,14.25,0,0,1,597,37.67Z"/><path class="cls-19" d="M600.88,59.07a4.24,4.24,0,0,1,1-5.46,4.15,4.15,0,0,1,4.52-.13,12.64,12.64,0,0,1,3-2c1.31-.65,5-2.44,8.72-.82a8.5,8.5,0,0,1,4.27,4.08c.64,1.46,0,2.53.62,5.71.19,1,.4,1.8.54,2.32,0-1.33.6-2.35,1.35-2.51s1.83.9,2.19,1.82c.6,1.53-.45,2.54-1.88,6.53-1.19,3.3-1,4.18-1.88,4.51-1.47.58-2.55-1.83-6.21-2.82-1.39-.37-3.87-1-5.65.19-1.38,1-1.44,2.44-3.45,3.64a7.15,7.15,0,0,1-1.82.75,27.32,27.32,0,0,1-5.27-15.81Z"/><rect class="cls-30" x="794.97" y="183.66" width="225.96" height="110.32" rx="6.28"/><rect class="cls-13" x="788.53" y="178.83" width="225.96" height="110.32" rx="6.28"/><rect class="cls-14" x="791.58" y="198.94" width="219.85" height="86.46" rx="6.28"/><rect class="cls-13" x="788.53" y="178.83" width="225.96" height="29.96" rx="6.28"/><rect class="cls-31" x="799.38" y="216.76" width="204.5" height="17.22"/><rect class="cls-31" x="799.38" y="237.66" width="204.5" height="17.22"/><rect class="cls-31" x="799.38" y="258.55" width="204.5" height="17.22"/><circle class="cls-14" cx="810.55" cy="193.8" r="4.26"/><circle class="cls-14" cx="828.29" cy="193.8" r="4.26"/><circle class="cls-14" cx="846.03" cy="193.8" r="4.26"/><rect class="cls-32" x="175.04" y="239.05" width="118.15" height="59.44" rx="3.47"/><rect class="cls-33" x="171.81" y="235.83" width="118.15" height="59.44" rx="3.47"/><line class="cls-34" x1="182.69" y1="252.41" x2="277.94" y2="252.41"/><line class="cls-34" x1="182.69" y1="264.83" x2="277.94" y2="264.83"/><line class="cls-34" x1="182.69" y1="278.13" x2="277.94" y2="278.13"/><path class="cls-35" d="M63.86,435.21c1.58,1.49,3.14,3,4.76,4.45.8.7.86,1.18.15,2-2.26,2.77-3.51,5.89-2.77,9.54a11.84,11.84,0,0,0,4,6.59,24.13,24.13,0,0,0,4.6,3.17.88.88,0,0,1,.52,1.11q-1.32,5.73-2.59,11.48c-.16.71-.54.8-1.16.72a19.75,19.75,0,0,0-5.69.12c-3.9.64-6.06,3.09-7.16,6.68a31.28,31.28,0,0,0-1.37,8.32A1.42,1.42,0,0,1,56,491c-3.61.93-7.22,1.91-10.8,3-1,.28-1.35,0-1.72-.85-1.68-3.86-4.28-6.78-8.63-7.55a14.26,14.26,0,0,0-11,2.45,1.61,1.61,0,0,1-2.49-.23q-3.68-3.6-7.51-7c-.9-.81-.85-1.37-.14-2.26a11.71,11.71,0,0,0,2.63-9.71,9.94,9.94,0,0,0-2.59-5.13,21.3,21.3,0,0,0-6.47-4.82,1,1,0,0,1-.62-1.35c1-3.57,1.88-7.15,2.8-10.73a.89.89,0,0,1,1-.79,16.32,16.32,0,0,0,11.19-3.89,11.34,11.34,0,0,0,3.74-8.32,15,15,0,0,0-.18-3.41c-.1-.63.12-.89.69-1.08,3.63-1.16,7.26-2.33,10.87-3.55.75-.25,1,.09,1.31.65a16.42,16.42,0,0,0,6.39,7,9.56,9.56,0,0,0,12.79-2.43c.76-1,1.19-.83,1.94-.09C60.71,432.32,62.3,433.75,63.86,435.21ZM28.58,473.4a18.06,18.06,0,1,0-.91-25.46A17.93,17.93,0,0,0,28.58,473.4Z"/><path class="cls-35" d="M1048.82,123.25c-1.2,1.82-2.43,3.6-3.58,5.45-.55.9-1,1-2,.49-3.1-1.76-6.39-2.47-9.86-1.13a11.8,11.8,0,0,0-5.82,5.11,23.51,23.51,0,0,0-2.35,5.06.88.88,0,0,1-1,.7c-3.91-.22-7.83-.44-11.76-.63-.72,0-.87-.39-.89-1a19.78,19.78,0,0,0-1.08-5.58c-1.29-3.75-4.07-5.46-7.79-5.94a31.31,31.31,0,0,0-8.43,0,1.4,1.4,0,0,1-1.76-1q-2.29-5.11-4.75-10.15c-.44-.91-.22-1.33.55-1.83,3.53-2.32,6-5.37,6-9.79A14.24,14.24,0,0,0,990,92.68a1.62,1.62,0,0,1-.19-2.5q2.94-4.23,5.68-8.58c.64-1,1.2-1.07,2.2-.52a11.77,11.77,0,0,0,10,1,9.86,9.86,0,0,0,4.61-3.42,21.09,21.09,0,0,0,3.67-7.18,1,1,0,0,1,1.22-.84c3.68.34,7.37.65,11,1a.89.89,0,0,1,1,.87A16.27,16.27,0,0,0,1035,82.8a11.31,11.31,0,0,0,8.83,2.29,15.24,15.24,0,0,0,3.34-.75c.6-.21.89,0,1.17.5,1.76,3.38,3.52,6.76,5.33,10.12.37.7.08,1-.43,1.4a16.41,16.41,0,0,0-5.79,7.47A9.56,9.56,0,0,0,1052,116c1.07.59,1,1,.41,1.89C1051.15,119.67,1050,121.47,1048.82,123.25ZM1005.25,94.9a18.06,18.06,0,1,0,25-5.18A17.93,17.93,0,0,0,1005.25,94.9Z"/><path class="cls-36" d="M1105.18,240.79A16.25,16.25,0,1,0,1121.43,257,16.25,16.25,0,0,0,1105.18,240.79Zm0,27A10.78,10.78,0,1,1,1116,257,10.78,10.78,0,0,1,1105.18,267.82Z"/><path class="cls-36" d="M552.44,31.51a11.21,11.21,0,1,0,11.21,11.21A11.21,11.21,0,0,0,552.44,31.51Zm0,18.64a7.43,7.43,0,1,1,7.43-7.43A7.43,7.43,0,0,1,552.44,50.15Z"/><path class="cls-36" d="M481.71,20.75a6.7,6.7,0,1,0,6.7,6.7A6.7,6.7,0,0,0,481.71,20.75Zm0,11.14a4.44,4.44,0,1,1,4.44-4.44A4.44,4.44,0,0,1,481.71,31.89Z"/></svg>